<svg width="393" height="1033" viewBox="0 0 393 1033" fill="none" xmlns="http://www.w3.org/2000/svg">
<path d="M377.85 969.508L378.85 1003.51L368.35 1008.51L356.35 995.008L355.35 1013.51C314.134 1025 213.184 1040.45 134.85 1011.82C134.35 1013.05 132.25 1015.81 127.85 1017.01C97.5171 1014.84 33.3504 1007.11 19.3504 993.508C6.71619 981.235 13.492 959.895 19.834 948.008C20.5196 946.723 21.2001 945.549 21.8504 944.508H26.3506C32.5504 933.321 47.8837 912.435 66.8506 902.736C60.8506 890.827 56.8506 860.608 88.8506 835.008C86.8506 836.508 82.2506 838.908 79.8506 836.508C76.3506 833.508 73.0506 824.308 87.8506 811.508L110.851 790.008C105.351 794.175 94.2506 801.508 93.8506 797.508C92.0173 794.508 93.2506 781.208 112.851 752.008C113.517 750.175 114.651 743.208 113.851 730.008C114.017 725.508 115.451 714.308 119.851 705.508C121.517 699.008 125.451 680.408 127.851 658.008C129.26 658.478 133.846 659.229 142.59 659.492C134.293 658.901 124.665 657.145 117.851 653.008C115.851 651.341 110.451 647.708 104.851 646.508C114.517 639.175 136.351 617.808 146.351 591.008C147.684 587.841 151.651 580.108 156.851 574.508C169.017 556.175 192.651 499.808 189.851 421.008L197.851 325.508C198.684 322.675 201.551 316.708 206.351 315.508L203.851 301.508L213.851 288.008L202.351 260.008C191.017 266.841 165.051 281.608 151.851 286.008C138.651 290.408 129.684 287.841 126.851 286.008L81.3506 249.508C74.5173 243.341 60.5506 227.808 59.3506 215.008C56.1839 201.508 51.1506 166.608 56.3506 135.008C52.8506 136.675 44.5506 139.808 39.3506 139.008C44.5173 135.508 55.4506 125.908 57.8506 115.508C47.8506 121.008 25.2506 132.008 14.8506 132.008C21.8506 126.341 35.8506 114.108 35.8506 110.508C29.1839 108.341 12.7506 106.808 0.350586 118.008C10.0173 108.508 34.3506 87.2081 54.3506 78.0081C47.3506 78.8414 30.9506 78.4081 21.3506 70.0081C28.6839 69.8414 45.2506 68.8081 52.8506 66.0081C59.6839 62.3414 75.9506 55.0081 86.3506 55.0081C79.1839 54.6747 62.1506 54.6081 51.3506 57.0081C58.1839 47.3414 88.5506 27.4081 155.351 25.0081C152.184 21.6747 146.151 13.9081 147.351 9.50806C152.017 13.6747 163.951 22.2081 174.351 23.0081C177.184 23.5081 183.451 25.3081 185.851 28.5081C184.017 22.1747 181.051 7.90806 183.851 1.50806C187.017 13.3414 199.451 38.3081 223.851 43.5081C223.517 39.8414 223.051 31.7081 223.851 28.5081C225.351 34.3414 229.551 46.9081 234.351 50.5081C234.517 49.5081 235.351 47.1081 237.351 45.5081C238.184 50.0081 240.651 59.4081 243.851 61.0081C247.851 63.0081 272.351 58.5081 280.351 53.5081C280.184 56.3414 275.851 63.6081 259.851 70.0081C264.851 74.1747 279.651 83.4081 298.851 87.0081C295.184 88.5081 284.651 91.4081 271.851 91.0081C274.684 95.1747 280.351 104.008 280.351 106.008C278.851 104.675 275.451 101.808 273.851 101.008C275.517 106.508 278.151 119.808 275.351 129.008C273.351 124.341 268.651 114.508 265.851 112.508C265.017 124.175 262.451 153.608 258.851 178.008C266.851 179.341 281.151 187.008 274.351 207.008C271.517 213.841 261.451 227.108 243.851 225.508L228.351 243.508L237.851 275.008L252.851 285.008L253.351 289.008L274.351 299.508C276.017 300.175 280.551 304.308 285.351 315.508C290.151 326.708 337.017 430.841 359.851 481.508L352.351 700.508L352.851 703.508C350.851 705.175 347.051 711.108 347.851 721.508L335.851 758.008C334.017 757.675 330.451 758.208 330.851 763.008C331.351 769.008 329.351 769.508 326.851 772.008C324.351 774.508 330.351 777.508 332.351 774.508C344.184 802.008 367.251 858.708 364.851 865.508C364.017 868.508 361.651 875.508 358.851 879.508L343.351 862.008C342.684 861.675 341.451 861.408 341.851 863.008C342.517 864.341 344.251 867.308 345.851 868.508C346.017 869.008 346.051 869.908 344.851 869.508C343.017 868.508 339.551 867.208 340.351 870.008C340.684 871.341 344.351 875.908 356.351 883.508C356.851 884.008 357.551 885.508 356.351 887.508C355.184 889.341 354.051 893.208 358.851 894.008C360.684 893.175 363.851 892.408 361.851 896.008C359.851 899.608 369.351 911.508 374.351 917.008L370.351 959.008L369.351 971.054C372.218 971.061 375.22 970.659 377.85 969.508Z" fill="#C9DBDD"/>
<path d="M131.35 958.008C159.35 975.841 238.05 1003.11 328.85 969.508M131.35 958.008C136.654 947.402 149.469 930.567 168.851 920.376M131.35 958.008C129.031 959.664 127.473 962.278 126.5 965.508M328.85 969.508C308.85 944.308 276.517 936.341 262.85 935.508C248.45 919.108 222.184 913.008 210.85 912.008C194.603 910.504 180.534 914.233 168.851 920.376M328.85 969.508C330.85 971.008 336.15 972.408 341.35 966.008C344.184 964.508 351.75 963.108 359.35 969.508C361.412 970.195 365.242 971.044 369.351 971.054M134.85 1011.82C213.184 1040.45 314.134 1025 355.35 1013.51L356.35 995.008L368.35 1008.51L378.85 1003.51L377.85 969.508C375.22 970.659 372.218 971.061 369.351 971.054M134.85 1011.82C133.679 1011.39 132.512 1010.96 131.35 1010.51C127.65 999.275 122.776 977.876 126.5 965.508M134.85 1011.82C134.35 1013.05 132.25 1015.81 127.85 1017.01C97.5171 1014.84 33.3504 1007.11 19.3504 993.508C6.71619 981.235 13.492 959.895 19.834 948.008M158.351 912.008C143.017 905.675 106.051 894.008 80.8506 898.008C76.0291 898.773 71.3381 900.442 66.8506 902.736M158.351 912.008C160.517 912.92 165.651 915.871 168.851 920.376M158.351 912.008L153.351 902.736C148.151 893.319 151.184 887.66 153.351 886.008L167.351 874.008C166.184 871.341 163.051 863.708 159.851 854.508C156.651 845.308 160.184 837.341 162.351 834.508L172.351 821.508L161.351 803.008C158.151 799.008 159.351 791.675 160.351 788.508C167.951 776.508 168.851 741.841 168.351 726.008C161.951 722.408 157.351 713.175 155.851 709.008V659.508M19.834 948.008C20.5196 946.723 21.2001 945.549 21.8504 944.508H26.3506C32.5504 933.321 47.8837 912.435 66.8506 902.736M19.834 948.008C28.4393 955.841 61.8199 970.308 126.5 965.508M66.8506 902.736C60.8506 890.827 56.8506 860.608 88.8506 835.008C86.8506 836.508 82.2506 838.908 79.8506 836.508C76.3506 833.508 73.0506 824.308 87.8506 811.508L110.851 790.008C105.351 794.175 94.2506 801.508 93.8506 797.508C92.0173 794.508 93.2506 781.208 112.851 752.008C113.517 750.175 114.651 743.208 113.851 730.008C114.017 725.508 115.451 714.308 119.851 705.508C121.517 699.008 125.451 680.408 127.851 658.008C129.851 658.675 138.251 659.908 155.851 659.508M155.851 659.508C147.851 660.175 129.051 659.808 117.851 653.008C115.851 651.341 110.451 647.708 104.851 646.508C114.517 639.175 136.351 617.808 146.351 591.008C147.684 587.841 151.651 580.108 156.851 574.508C169.017 556.175 192.651 499.808 189.851 421.008L197.851 325.508C198.684 322.675 201.551 316.708 206.351 315.508L203.851 301.508L213.851 288.008L202.351 260.008C191.017 266.841 165.051 281.608 151.851 286.008C138.651 290.408 129.684 287.841 126.851 286.008L81.3506 249.508C74.5173 243.341 60.5506 227.808 59.3506 215.008C56.1839 201.508 51.1506 166.608 56.3506 135.008C52.8506 136.675 44.5506 139.808 39.3506 139.008C44.5173 135.508 55.4506 125.908 57.8506 115.508C47.8506 121.008 25.2506 132.008 14.8506 132.008C21.8506 126.341 35.8506 114.108 35.8506 110.508C29.1839 108.341 12.7506 106.808 0.350586 118.008C10.0173 108.508 34.3506 87.2081 54.3506 78.0081C47.3506 78.8414 30.9506 78.4081 21.3506 70.0081C28.6839 69.8414 45.2506 68.8081 52.8506 66.0081C59.6839 62.3414 75.9506 55.0081 86.3506 55.0081C79.1839 54.6747 62.1506 54.6081 51.3506 57.0081C58.1839 47.3414 88.5506 27.4081 155.351 25.0081C152.184 21.6747 146.151 13.9081 147.351 9.50806C152.017 13.6747 163.951 22.2081 174.351 23.0081C177.184 23.5081 183.451 25.3081 185.851 28.5081C184.017 22.1747 181.051 7.90806 183.851 1.50806C187.017 13.3414 199.451 38.3081 223.851 43.5081C223.517 39.8414 223.051 31.7081 223.851 28.5081C225.351 34.3414 229.551 46.9081 234.351 50.5081C234.517 49.5081 235.351 47.1081 237.351 45.5081C238.184 50.0081 240.651 59.4081 243.851 61.0081C247.851 63.0081 272.351 58.5081 280.351 53.5081C280.184 56.3414 275.851 63.6081 259.851 70.0081C264.851 74.1747 279.651 83.4081 298.851 87.0081C295.184 88.5081 284.651 91.4081 271.851 91.0081C274.684 95.1747 280.351 104.008 280.351 106.008C278.851 104.675 275.451 101.808 273.851 101.008C275.517 106.508 278.151 119.808 275.351 129.008C273.351 124.341 268.651 114.508 265.851 112.508C265.017 124.175 262.451 153.608 258.851 178.008C266.851 179.341 281.151 187.008 274.351 207.008C271.517 213.841 261.451 227.108 243.851 225.508L228.351 243.508L237.851 275.008L252.851 285.008L253.351 289.008L274.351 299.508C276.017 300.175 280.551 304.308 285.351 315.508C290.151 326.708 337.017 430.841 359.851 481.508L352.351 700.508M167.351 914.008C166.017 912.341 163.151 906.108 162.351 894.508C167.351 886.675 180.451 871.308 192.851 872.508C195.017 872.008 198.551 869.708 195.351 864.508C194.184 864.008 191.351 863.508 189.351 865.508C189.351 863.508 188.251 859.908 183.851 861.508C183.184 861.675 180.651 863.508 175.851 869.508C174.351 864.841 171.551 853.108 172.351 843.508L185.351 827.508C187.517 827.841 192.151 827.608 193.351 824.008C194.551 820.408 190.851 819.508 188.851 819.508L168.851 786.508C168.017 783.508 168.151 775.908 175.351 769.508C174.351 753.175 173.651 708.808 178.851 662.008C196.684 665.008 235.351 669.208 247.351 662.008C250.351 660.508 257.351 659.308 261.351 666.508C269.517 678.008 299.151 700.908 352.351 700.508M352.351 700.508L352.851 703.508C350.851 705.175 347.051 711.108 347.851 721.508L335.851 758.008C334.017 757.675 330.451 758.208 330.851 763.008C331.351 769.008 329.351 769.508 326.851 772.008C324.351 774.508 330.351 777.508 332.351 774.508C344.184 802.008 367.251 858.708 364.851 865.508C364.017 868.508 361.651 875.508 358.851 879.508L343.351 862.008C342.684 861.675 341.451 861.408 341.851 863.008C342.517 864.341 344.251 867.308 345.851 868.508C346.017 869.008 346.051 869.908 344.851 869.508C343.017 868.508 339.551 867.208 340.351 870.008C340.684 871.341 344.351 875.908 356.351 883.508C356.851 884.008 357.551 885.508 356.351 887.508C355.184 889.341 354.051 893.208 358.851 894.008C360.684 893.175 363.851 892.408 361.851 896.008C359.851 899.608 369.351 911.508 374.351 917.008L370.351 959.008L369.351 971.054M168.351 696.508C166.684 692.675 163.351 679.908 163.351 659.508C166.351 659.508 172.351 660.008 172.351 662.008C172.351 664.508 171.851 693.008 168.351 696.508Z" stroke="black"/>
<path d="M240.851 195.508C241.136 194.836 241.488 194.08 241.904 193.271C245.374 184.433 247.94 163.323 248.851 153.008C230.851 158.208 202.684 162.175 190.851 163.508C188.051 151.508 195.017 124.508 198.851 112.508C187.251 112.908 179.017 110.341 176.351 109.008C173.151 117.008 164.684 128.675 160.851 133.508C165.251 123.508 164.684 113.675 163.851 110.008C152.251 116.008 142.017 124.841 138.351 128.508C143.151 122.508 145.017 115.008 145.351 112.008C138.951 119.208 129.017 125.008 124.851 127.008C130.451 119.408 132.517 110.841 132.851 107.508C118.451 113.508 103.517 129.341 97.8506 136.508C98.6506 130.108 101.517 123.841 102.851 121.508C94.4506 127.108 77.0173 134.841 69.3506 138.008C83.3506 131.208 92.5173 117.841 95.3506 112.008C87.3506 114.408 79.3506 122.341 76.3506 126.008C78.3506 121.208 78.5173 117.675 78.3506 116.508C62.3506 135.708 46.0173 139.508 39.8506 139.008C54.6506 126.608 58.0173 118.175 57.8506 115.508C34.2506 128.308 19.6839 131.841 15.3506 132.008C29.7506 120.408 35.0173 112.841 35.8506 110.508C17.4506 106.108 4.85059 113.341 0.850586 117.508C16.4506 100.708 42.6839 84.1747 53.8506 78.0081C37.4506 80.0081 25.3506 73.5081 21.3506 70.0081C38.5506 70.0081 49.5173 67.3414 52.8506 66.0081C66.8506 57.6081 80.3506 55.1747 85.3506 55.0081C71.7506 53.8081 57.3506 55.5081 51.8506 56.5081C76.6506 31.7081 131.184 25.1747 155.35 25.0081C147.75 17.0081 146.85 11.3414 147.35 9.50806C158.95 19.5081 169.184 22.6747 172.85 23.0081C178.85 23.4081 183.684 26.1747 185.351 27.5081C181.751 15.1081 182.851 5.67472 183.851 2.50806C195.051 33.7081 215.184 42.5081 223.851 43.0081C223.051 37.8081 223.517 31.8414 223.851 29.5081C227.851 43.1081 232.517 49.1747 234.351 50.508C235.551 46.508 236.851 45.8414 237.351 46.008C238.951 58.408 243.017 61.508 244.851 61.508C257.651 61.908 273.851 56.6747 280.351 54.008C277.151 62.408 265.351 68.1747 259.851 70.008C275.051 81.608 291.851 86.1747 298.351 87.008C294.751 89.808 279.184 91.1747 271.851 91.508C276.251 96.708 279.351 103.341 280.351 106.008C276.751 103.208 274.517 101.841 273.851 101.508C277.851 114.308 276.517 124.841 275.351 128.508C272.951 121.308 268.017 115.175 265.851 113.008C265.851 121.408 261.184 160.175 258.851 178.508C251.126 178.859 244.891 187.455 241.904 193.271C241.562 194.144 241.21 194.897 240.851 195.508Z" fill="black" stroke="black"/>
<path d="M359.35 969.508C372.15 973.508 384.684 968.175 389.35 965.008C393.35 962.208 391.017 959.508 389.35 958.508L388.851 922.508C390.051 921.308 390.684 919.675 390.851 919.008C392.051 909.008 385.684 907.841 382.351 908.508L373.351 897.508C377.351 890.308 381.017 880.175 382.351 876.008C377.151 870.008 374.517 862.508 373.851 859.508C370.651 847.508 361.184 820.508 356.851 808.508C346.851 790.108 343.351 775.841 342.851 771.008C347.251 760.608 348.017 750.341 347.851 746.508C357.851 721.708 362.351 701.175 363.351 694.008L352.851 693.008L351.851 700.508C299.451 701.308 269.351 677.508 260.851 665.508C256.051 659.108 249.184 660.841 246.351 662.508C229.551 668.908 194.351 664.841 178.851 662.008C169.251 659.208 159.517 659.175 155.851 659.508V709.008C157.851 716.608 165.017 723.841 168.351 726.508C168.851 774.508 163.351 781.508 160.351 788.508C157.951 794.108 160.017 800.508 161.351 803.008L172.351 821.508C171.517 822.508 168.451 826.308 162.851 833.508C157.251 840.708 158.184 849.508 159.351 853.008L167.351 874.008C165.017 876.008 158.85 881.308 152.85 886.508C146.85 891.708 154.017 905.675 158.35 912.008C162.75 913.608 167.184 918.008 168.85 920.008C212.45 899.608 249.684 921.841 262.85 935.508C300.05 939.508 322.35 959.841 328.85 969.508C334.05 972.708 339.684 968.508 341.85 966.008C349.05 962.408 356.517 966.841 359.35 969.508Z" fill="black" stroke="black"/>
<path d="M336.351 961.508C346.751 959.908 363.351 959.842 370.351 960.008L374.351 917.008C362.351 903.808 361.017 897.841 361.851 896.508C362.351 895.675 363.151 893.908 362.351 893.508C361.551 893.108 359.684 893.675 358.851 894.008C354.051 893.608 355.184 889.508 356.351 887.508C357.551 885.108 356.851 883.841 356.351 883.508C340.351 873.508 339.017 869.341 340.351 868.508C342.351 867.508 344.351 869.008 345.351 869.508C346.151 869.908 346.017 869.008 345.851 868.508C344.684 867.341 342.251 864.608 341.851 863.008C341.451 861.408 342.684 861.675 343.351 862.008C344.951 863.608 354.351 874.008 358.851 879.008C362.051 874.208 364.184 867.675 364.851 865.008C367.651 860.608 344.351 802.841 332.351 774.508C331.951 776.108 330.184 776.175 329.351 776.008C325.351 774.808 326.017 772.841 326.851 772.008C331.251 768.808 331.351 764.341 330.851 762.508C330.451 758.508 334.017 757.841 335.851 758.008L347.851 721.508C347.051 711.108 350.851 705.175 352.851 703.508L352.351 700.508C299.951 701.708 269.851 678.341 261.351 666.508C256.551 658.908 249.351 660.675 246.351 662.508C231.951 668.908 195.351 664.841 178.851 662.008C174.451 700.008 174.684 749.508 175.351 769.508C167.751 777.108 167.851 784.008 168.851 786.508L188.851 819.508C190.851 819.508 194.551 820.408 193.351 824.008C192.151 827.608 187.517 827.841 185.351 827.508L172.351 843.508C171.551 854.708 174.351 865.508 175.851 869.508C179.051 865.508 182.517 862.508 183.851 861.508C188.251 859.908 189.351 863.508 189.351 865.508C192.151 862.708 194.517 863.675 195.351 864.508C198.551 869.308 195.017 871.841 192.851 872.508C180.051 871.308 167.184 886.675 162.351 894.508C162.351 902.508 165.684 910.841 167.351 914.008C217.751 897.208 256.351 919.008 269.351 932.008C284.551 932.408 306.684 944.841 315.851 951.008C323.851 953.008 332.851 958.841 336.351 961.508Z" fill="#C9DBDD" stroke="black"/>
<path d="M208.851 365.508C209.184 391.008 206.351 450.808 192.351 486.008C192.017 490.841 190.251 504.108 185.851 518.508C180.351 536.508 167.351 569.508 161.851 589.508C158.184 595.341 150.251 609.608 147.851 620.008L146.851 640.508C151.684 640.508 165.051 642.408 179.851 650.008C194.651 657.608 231.351 655.175 247.851 653.008C235.684 644.508 210.451 626.008 206.851 620.008C203.251 614.008 199.684 611.841 198.351 611.508C197.017 610.675 195.051 608.808 197.851 608.008C200.651 607.208 206.684 614.675 209.351 618.508C211.517 618.341 217.451 619.608 223.851 626.008C224.017 624.341 221.751 618.508 211.351 608.508C211.184 607.508 211.451 605.908 213.851 607.508C216.251 609.108 242.517 636.508 255.351 650.008C257.017 634.841 263.251 597.708 274.851 570.508C276.017 568.675 278.351 564.008 278.351 560.008C278.351 556.008 279.684 523.008 280.351 507.008L251.851 379.008L250.351 365.508C251.017 366.265 252.551 370.026 253.351 379.008C256.184 387.341 262.451 406.308 264.851 415.508C267.251 424.708 282.851 479.008 290.351 505.008L306.851 494.508C306.184 495.675 304.251 498.508 301.851 500.508L324.351 491.008C317.851 494.008 304.751 500.308 304.351 501.508C303.951 502.708 319.517 501.341 327.351 500.508L298.351 511.008C300.851 511.175 306.051 512.108 306.851 514.508C302.517 515.341 293.051 517.708 289.851 520.508C289.017 543.675 284.851 596.008 274.851 620.008C273.017 625.175 269.651 639.308 270.851 654.508C282.684 667.841 312.851 692.008 338.851 682.008L339.851 672.508C336.684 666.175 330.051 651.708 328.851 644.508C330.684 645.175 336.051 648.408 342.851 656.008L349.351 483.008L281.351 313.508C276.888 317.295 268.211 326.459 263.174 337.26C261.91 340.102 261.056 342.489 260.564 344.215C260.49 344.479 260.419 344.743 260.351 345.008C260.412 344.762 260.483 344.498 260.564 344.215C261.227 341.848 262.121 339.518 263.174 337.26C266.184 330.492 271.52 321.145 279.851 312.008C279.184 309.341 272.951 302.008 253.351 294.008C247.684 308.841 236.051 341.508 234.851 353.508C233.517 342.175 230.151 317.508 227.351 309.508C222.351 316.008 211.751 331.808 209.351 343.008C209.017 334.508 207.451 314.408 203.851 302.008L213.851 288.008L227.351 305.008L235.851 290.008C233.684 283.341 229.151 268.108 228.351 260.508L211.851 271.508C212.351 275.008 213.351 282.908 213.351 286.508L202.351 260.508L228.351 243.508L237.851 275.008L252.851 285.008L253.351 289.008L273.351 299.008C275.851 300.175 281.751 305.108 285.351 315.508L359.851 481.508C357.684 548.841 353.051 686.908 351.851 700.508C332.184 701.508 286.551 696.108 261.351 666.508C260.184 663.675 255.751 658.808 247.351 662.008C243.017 665.008 223.451 669.208 179.851 662.008C175.684 660.841 164.551 658.708 153.351 659.508C146.517 660.008 129.951 659.508 118.351 653.508C117.851 653.508 114.851 649.508 105.351 646.508C114.851 638.675 136.251 617.008 145.851 593.008C146.684 589.841 150.051 581.708 156.851 574.508C169.851 551.508 194.651 488.708 189.851 421.508L195.851 345.008C195.517 374.675 194.751 437.008 194.351 449.008C198.464 430.508 207.122 387.908 208.851 365.508Z" fill="black" stroke="black"/>
<path d="M69.8508 897.508C87.4508 889.508 132.851 898.508 153.351 904.008L157.851 911.508C102.651 890.708 74.1841 896.841 66.8508 902.508C50.8508 872.508 74.5175 845.341 88.3508 835.508C67.5508 857.508 66.0175 873.008 67.8508 878.008C77.3508 877.675 97.9508 877.608 104.351 880.008C110.751 882.408 130.018 887.341 138.851 889.508C133.251 891.108 119.184 887.508 112.851 885.508C96.0508 879.508 73.8508 883.675 64.8508 886.508C65.2508 892.508 68.3508 896.341 69.8508 897.508Z" fill="black" stroke="black"/>
<path d="M126.351 1011.51C119.551 997.508 121.184 975.341 122.851 966.008H126.351C123.151 979.608 128.351 1001.34 131.351 1010.51L134.851 1012.01C134.051 1014.81 129.517 1016.84 127.351 1017.51C82.5506 1015.91 42.0172 1004.84 27.3506 999.508C3.75057 989.908 12.1839 961.175 19.3506 948.008L23.3505 951.008C11.7505 981.408 25.5172 993.341 33.8505 995.508C63.8505 1009.91 108.017 1012.17 126.351 1011.51Z" fill="black" stroke="black"/>
<path d="M131.351 958.008C85.7506 963.208 42.6839 951.508 26.8506 945.008H22.3506L20.3506 948.508C53.9506 968.508 105.017 967.841 126.351 965.008C127.551 960.608 130.184 958.508 131.351 958.008Z" fill="black" stroke="black"/>
<path d="M64.8506 900.008C40.8506 913.608 27.8506 935.341 24.3506 944.508H26.3506C39.9506 918.908 58.6839 905.841 66.3506 902.508L64.8506 900.008Z" fill="black" stroke="black"/>
<path d="M42.8506 880.508C48.0506 888.908 54.3506 901.675 56.8506 907.008L65.8506 900.508C51.4506 870.508 74.8506 844.675 88.3506 835.508C83.5506 838.708 80.3506 837.175 79.3506 836.008C72.1506 828.008 81.6839 816.675 87.3506 812.008L110.351 790.508C106.851 792.841 99.2506 797.708 96.8506 798.508C94.4506 799.308 93.5173 796.841 93.3506 795.508C93.3506 782.308 106.351 761.008 112.851 752.008C114.851 747.208 114.351 734.675 113.851 729.008C114.251 718.208 118.351 708.508 120.351 705.008C123.151 694.208 126.517 669.175 127.851 658.008L120.351 655.008C120.351 663.008 117.017 684.341 115.351 694.008C106.151 718.808 102.851 742.341 102.351 751.008L84.3506 779.008L83.8506 806.508L62.3506 823.008C58.7506 829.008 65.5173 841.508 69.3506 847.008C45.7506 870.608 41.8506 879.175 42.8506 880.508Z" fill="black" stroke="black"/>
<path d="M129.851 965.008C133.451 963.408 136.017 962.008 136.851 961.508L130.851 958.508C118.051 960.908 124.851 995.508 129.851 1012.51C140.251 1019.31 159.517 1024.01 167.851 1025.51C243.851 1039.91 326.851 1025.84 358.851 1017.01V1004.01L367.851 1013.01L382.851 1006.51V968.508L372.851 971.008L373.851 995.508L364.351 1000.01L354.351 991.008C353.851 995.508 352.751 1005.11 352.351 1007.51C351.951 1009.91 348.184 1011.51 346.351 1012.01C345.018 1012.51 334.451 1014.81 302.851 1020.01C263.351 1026.51 215.851 1022.01 198.351 1021.51C184.351 1021.11 170.517 1019.34 165.351 1018.51C156.951 1017.31 140.851 1010.01 133.851 1006.51C127.851 996.508 128.684 974.675 129.851 965.008Z" fill="black" stroke="black"/>
<path d="M326.351 966.508C244.751 994.908 162.684 972.675 131.851 958.008L133.851 963.008C213.451 1000.21 296.684 982.841 328.351 969.508L326.351 966.508Z" fill="black" stroke="black"/>
<path d="M240.868 195.963C243.552 188.952 251.674 175.815 262.85 179.008C268.35 181.008 278.65 188.408 275.85 202.008C274.184 210.341 265.45 226.708 243.85 225.508C240.85 229.341 232.95 238.908 225.35 246.508C213.184 254.508 181.25 273.708 150.85 286.508C145.35 288.341 132.25 290.308 123.85 283.508L82.8505 250.508C77.3505 246.175 65.1505 233.908 60.3505 219.508C56.6838 206.508 50.7505 171.508 56.3505 135.508C60.8505 133.008 71.5506 125.608 78.3506 116.008C78.3506 118.008 77.8506 122.908 75.8506 126.508C80.1839 121.841 90.1506 112.408 95.3506 112.008C91.9017 118.413 81.8501 132.489 68.9273 138.257C78.0007 134.296 96.695 125.598 103.351 120.508C101.517 124.341 97.8506 132.908 97.8506 136.508C104.351 128.508 120.451 111.508 132.851 107.508C132.517 110.841 130.351 119.508 124.351 127.508C129.351 124.841 140.551 118.008 145.351 112.008C144.851 115.508 142.651 123.808 137.851 129.008C142.517 124.508 154.251 114.408 163.851 110.008C164.851 113.508 165.551 123.308 160.351 134.508C163.851 130.008 171.951 118.608 176.351 109.008C179.684 110.341 188.851 112.908 198.851 112.508C195.017 123.508 188.051 149.108 190.851 163.508C203.351 162.008 232.451 157.808 248.851 153.008C248.351 161.665 246.055 182.363 240.868 195.963Z" fill="#FFEAC8" stroke="black"/>
<path d="M246.85 207.508C248.017 203.841 253.55 194.508 266.35 186.508C265.35 183.841 260.85 179.408 250.85 183.008C249.017 183.841 244.55 187.508 241.35 195.508C243.35 190.008 249.65 178.908 258.85 178.508C262.517 178.508 270.85 180.908 274.85 190.508C278.85 200.108 273.85 209.508 270.85 213.008C269.184 215.675 263.55 221.708 254.35 224.508C252.684 225.008 248.25 225.908 243.85 225.508C239.517 231.008 229.75 242.908 225.35 246.508C213.35 254.341 182.15 273.108 153.35 285.508C148.184 287.508 135.75 290.408 127.35 286.008L103.351 268.008L93.3506 260.008L81.3503 249.508C76.1837 245.008 64.7503 232.808 60.3503 220.008C56.8503 209.508 51.2503 177.808 56.8503 135.008C55.5699 156.508 54.9774 203.608 62.8506 220.008C64.6837 225.008 70.9501 237.308 81.3503 246.508L104.351 266.008L128.351 282.508C132.017 284.008 142.15 285.808 153.35 281.008C168.85 275.008 204.95 258.208 225.35 239.008C227.684 236.508 232.951 230.808 235.351 228.008C236.017 227.175 236.451 223.708 232.851 216.508C234.851 220.175 242.251 226.708 255.851 223.508C260.517 221.841 270.651 215.508 273.851 203.508C273.85 200.341 271.55 194.608 262.35 197.008C260.212 197.393 256.144 198.478 252.824 200.283C251.486 201.011 250.27 201.855 249.351 202.818C248.687 203.82 247.804 205.362 246.85 207.508Z" fill="black"/>
<path d="M251.85 216.508C256.017 216.008 263.95 213.208 262.35 206.008C261.184 202.675 257.15 197.108 250.35 201.508C250.148 201.71 249.8 202.14 249.351 202.818M249.351 202.818C248.687 203.82 247.804 205.362 246.85 207.508C248.017 203.841 253.55 194.508 266.35 186.508C265.35 183.841 260.85 179.408 250.85 183.008C249.017 183.841 244.55 187.508 241.35 195.508C243.35 190.008 249.65 178.908 258.85 178.508C262.517 178.508 270.85 180.908 274.85 190.508C278.85 200.108 273.85 209.508 270.85 213.008C269.184 215.675 263.55 221.708 254.35 224.508C252.684 225.008 248.25 225.908 243.85 225.508C239.517 231.008 229.75 242.908 225.35 246.508C213.35 254.341 182.15 273.108 153.35 285.508C148.184 287.508 135.75 290.408 127.35 286.008L103.351 268.008L93.3506 260.008L81.3503 249.508C76.1837 245.008 64.7503 232.808 60.3503 220.008C56.8503 209.508 51.2503 177.808 56.8503 135.008C55.5699 156.508 54.9774 203.608 62.8506 220.008C64.6837 225.008 70.9501 237.308 81.3503 246.508L104.351 266.008L128.351 282.508C132.017 284.008 142.15 285.808 153.35 281.008C168.85 275.008 204.95 258.208 225.35 239.008C227.684 236.508 232.951 230.808 235.351 228.008C236.017 227.175 236.451 223.708 232.851 216.508C234.851 220.175 242.251 226.708 255.851 223.508C260.517 221.841 270.651 215.508 273.851 203.508C273.85 200.341 271.55 194.608 262.35 197.008C259.35 197.548 252.551 199.466 249.351 202.818Z" stroke="black"/>
<path d="M254.351 148.508C247.951 151.708 210.684 158.175 192.851 161.008C190.851 145.808 198.684 120.341 202.851 109.508C187.651 109.108 177.517 106.008 174.351 104.508C173.551 106.908 170.684 110.841 169.351 112.508C170.551 108.508 167.851 104.175 166.351 102.508C159.151 109.708 151.684 114.175 148.851 115.508C151.651 109.908 150.684 105.508 149.851 104.008C146.651 108.808 137.851 114.341 133.851 116.508C137.451 111.308 137.017 106.008 136.351 104.008C127.151 105.608 113.851 115.341 108.351 120.008C108.751 115.208 111.851 107.675 113.351 104.508C107.351 107.308 104.851 114.675 104.351 118.008C101.951 120.408 93.0173 124.341 88.8506 126.008C91.3506 123.341 96.7506 116.908 98.3506 112.508C99.9506 108.108 97.6839 106.341 96.3506 106.008C93.5506 108.808 85.8506 113.175 82.3506 115.008C83.9506 111.408 81.6839 109.175 80.3506 108.508C66.7506 124.908 54.6839 131.341 50.3506 132.508C52.1839 130.175 56.6506 124.008 59.8506 118.008C63.0506 112.008 60.8506 108.175 59.3506 107.008C46.5506 115.808 38.3506 118.675 35.8506 119.008C40.2506 115.008 43.3506 105.675 44.3506 101.508C41.1506 105.108 27.6839 104.675 21.3506 104.008C23.7506 101.208 44.0173 86.8414 53.8506 80.0081C55.8506 78.8081 56.3506 77.1747 56.3506 76.5081C45.9506 75.3081 42.0173 72.3414 41.3506 71.0081C57.3506 70.2081 67.0173 66.0081 69.8506 64.0081C62.6506 66.4081 58.1839 66.3414 56.8506 66.0081C65.6506 60.4081 79.5173 57.3414 85.3506 56.5081C87.3506 55.7081 87.5173 54.8414 87.3506 54.5081C78.1506 52.9081 74.8506 51.1747 74.3506 50.5081C87.5506 37.7081 128.517 33.1747 147.351 32.5081C144.551 31.7081 143.517 30.1747 143.351 29.5081C150.151 27.5081 165.851 29.0081 172.851 30.0081V26.0081C180.851 25.2081 190.184 33.0081 193.851 37.0081C194.651 35.8081 195.184 33.1747 195.351 32.0081C197.751 36.0081 202.351 38.0081 204.351 38.5081C210.751 40.5081 216.351 45.6747 218.351 48.0081C221.951 53.2081 229.851 54.1747 233.351 54.0081C234.684 56.8414 238.551 62.9081 243.351 64.5081C248.151 66.1081 261.017 64.1747 266.851 63.0081C260.851 67.0081 254.351 69.6747 251.851 70.5081C254.251 70.9081 257.184 72.6747 258.351 73.5081C263.951 78.3081 279.017 84.8414 285.851 87.5081C281.051 88.3081 270.184 88.8414 265.351 89.0081C274.151 99.4081 274.684 114.675 273.851 121.008C271.451 114.208 265.851 108.508 263.351 106.508C259.351 117.308 255.684 139.008 254.351 148.508Z" fill="#C5915C" stroke="black"/>
<path d="M116.851 263.508C119.095 263.718 123.029 264.815 127.637 265.566C136.832 266.549 144.188 265.355 147.414 263.743C147.561 263.667 147.706 263.588 147.851 263.508C147.715 263.587 147.569 263.666 147.414 263.743C141.244 266.965 133.831 266.577 127.637 265.566C124.253 265.205 120.619 264.548 116.851 263.508Z" fill="#D9D9D9" stroke="black" stroke-width="3" stroke-linejoin="round"/>
<path d="M257.851 480.008C252.684 473.175 241.951 456.508 240.351 444.508" stroke="black" stroke-width="3" stroke-linecap="round"/>
<path d="M75.4294 214.464C69.1711 214.656 66.8308 193.104 68.8545 182.982L84.2731 185.585C85.3903 194.817 81.6878 214.272 75.4294 214.464Z" fill="black" stroke="black" stroke-width="3" stroke-linecap="round"/>
<path d="M145.388 219.443C157.404 218.622 158.073 194.01 154.83 183.57L131.254 187.161C131.022 196.996 133.372 220.264 145.388 219.443Z" fill="black" stroke="black" stroke-width="3" stroke-linecap="round"/>
<path d="M126.979 177.435C143.743 174.05 181.728 168.9 199.561 175.38C190.667 171.307 163.699 166.016 126.979 177.435Z" stroke="black" stroke-width="3" stroke-linecap="round" stroke-linejoin="round"/>
<path d="M93.8144 177.088C84.8713 172.715 64.4098 165.29 54.1085 170.574C59.312 167.109 74.538 163.562 93.8144 177.088Z" stroke="black" stroke-width="3" stroke-linecap="round" stroke-linejoin="round"/>
<path d="M213.851 288.008L227.351 304.508L235.851 290.008C229.451 268.808 228.184 261.175 228.351 260.008L211.851 270.508C213.051 280.508 213.684 286.341 213.851 288.008Z" fill="#FFEAC8" stroke="black" stroke-linecap="round" stroke-linejoin="round"/>
<path d="M183.851 651.508C207.851 657.508 235.517 655.008 246.351 653.008C237.151 647.008 219.184 631.841 211.351 625.008C209.351 623.008 206.851 619.508 205.851 618.008C203.851 613.608 199.684 611.175 197.851 610.508C196.651 609.308 197.351 608.675 197.851 608.508C200.251 607.708 206.517 614.841 209.351 618.508C215.351 618.908 221.517 623.675 223.851 626.008C222.251 619.608 214.851 611.675 211.351 608.508C210.951 605.708 213.851 607.341 215.351 608.508C218.551 611.708 243.351 637.175 255.351 649.508C257.751 619.908 269.017 584.508 274.351 570.508C276.351 567.308 277.517 563.175 277.851 561.508L279.851 507.008L251.351 379.008C250.951 371.008 250.184 365.675 249.851 364.008C252.251 369.208 253.517 376.841 253.851 380.008C259.051 395.208 262.351 406.341 263.351 410.008L290.351 505.508L306.851 494.508L303.351 499.508C315.751 494.308 322.517 491.675 324.351 491.008C318.351 493.808 308.517 499.175 304.351 501.508C309.951 502.308 322.017 501.175 327.351 500.508L299.351 511.008C304.951 511.808 306.351 513.675 306.351 514.508C296.351 516.908 291.517 519.841 290.351 521.008C289.551 544.608 287.017 566.841 285.851 575.008C284.851 583.175 281.451 603.008 275.851 617.008C270.251 631.008 270.184 648.175 270.851 655.008C273.184 658.175 282.251 667.108 299.851 677.508C317.451 687.908 333.517 684.841 339.351 682.008L340.351 673.008C333.151 660.608 330.017 649.175 329.351 645.008C333.751 647.008 340.517 653.508 343.351 656.508L349.851 483.008L281.351 313.508C269.751 322.308 262.517 338.175 260.351 345.008C263.551 331.808 274.684 317.508 279.851 312.008C277.851 304.808 261.684 297.008 253.851 294.008C241.451 322.808 236.017 345.675 234.851 353.508C234.451 340.708 229.684 319.175 227.351 310.008C217.351 320.808 211.184 336.508 209.351 343.008C209.351 332.608 207.351 320.341 206.351 315.508C201.151 316.308 198.517 322.841 197.851 326.008L195.851 350.008L194.851 445.508C199.651 431.108 206.184 386.841 208.851 366.508C208.851 437.708 197.851 475.841 192.351 486.008C190.851 506.008 185.351 524.508 180.351 536.508C176.351 546.108 166.351 575.841 161.851 589.508C151.051 606.708 148.351 617.341 148.351 620.508L147.351 640.008C162.551 641.608 178.017 648.341 183.851 651.508Z" fill="#EDC0FF" stroke="black" stroke-linecap="round" stroke-linejoin="round"/>
<path d="M129.851 965.008C126.651 988.208 131.184 1002.34 133.851 1006.51C135.684 1009.51 146.151 1016.51 173.351 1020.51C200.551 1024.51 252.351 1024.17 274.851 1023.51C309.651 1020.31 337.017 1014.51 346.351 1012.01C351.151 1010.81 352.351 1008.51 352.351 1007.51L354.351 991.008L364.351 1000.01L373.851 995.508L373.351 970.508C366.551 971.308 361.517 970.175 359.851 969.508C351.851 963.108 344.517 964.508 341.851 966.008C341.051 968.008 337.851 969.841 336.351 970.508C332.351 972.508 329.351 970.341 328.351 969.008C248.351 1001.41 165.351 978.508 133.851 963.008L129.851 965.008Z" fill="#683519" stroke="black" stroke-linecap="round" stroke-linejoin="round"/>
<path d="M33.3506 995.508C65.7506 1008.71 108.517 1011.67 125.851 1011.51C119.451 997.508 121.184 975.341 122.851 966.008C71.2506 971.208 35.0173 958.175 23.3506 951.008C12.1506 980.608 25.3506 993.008 33.3506 995.508Z" fill="#683519" stroke="black" stroke-linecap="round" stroke-linejoin="round"/>
<path d="M82.3506 897.508C53.1506 903.108 33.0173 931.341 26.3506 945.008C56.7506 959.408 108.184 959.841 130.351 958.008C141.151 936.408 160.184 923.675 168.351 920.008C166.351 917.208 160.517 913.508 157.851 912.008C128.251 896.408 95.1839 895.841 82.3506 897.508Z" fill="white" stroke="black" stroke-linecap="round" stroke-linejoin="round"/>
<path d="M67.3506 920.508C78.3506 919.175 104.951 918.508 123.351 926.508M67.3506 920.508C75.8506 916.508 99.5506 909.408 126.351 913.008C116.851 911.341 91.7506 910.508 67.3506 920.508ZM123.351 926.508C116.851 921.508 99.8506 910.708 83.8506 907.508C90.5173 908.841 107.751 914.508 123.351 926.508Z" stroke="black" stroke-width="3"/>
<path d="M262.851 935.508C296.051 937.908 319.017 957.175 326.351 966.508C245.951 994.508 163.184 972.508 131.851 958.008C175.851 887.608 237.517 913.675 262.851 935.508Z" fill="white" stroke="black" stroke-linecap="round" stroke-linejoin="round"/>
<path d="M184.955 925.043C197.135 928.341 226.144 937.98 244.742 950.153C229.118 945.676 193.861 936.817 177.82 937.192M177.82 937.192C191.316 934.383 224.312 930.776 248.33 938.822C238.164 935.295 209.831 930.03 177.82 937.192Z" stroke="black" stroke-width="3"/>
<path d="M126.851 187.508C140.551 183.268 163.386 177.841 184.851 184.964C170.236 181.823 162.473 178.859 126.851 187.508Z" stroke="black" stroke-linecap="round" stroke-linejoin="round"/>
<path d="M91.8506 186.508C82.9706 183.501 68.7626 177.957 54.8506 183.008C64.3226 180.781 68.7626 180.375 91.8506 186.508Z" stroke="black" stroke-linecap="round" stroke-linejoin="round"/>
</svg>
