<svg width="117" height="308" viewBox="0 0 117 308" fill="none" xmlns="http://www.w3.org/2000/svg">
<path d="M112.257 288.463L112.553 298.542L109.441 300.024L105.883 296.022L105.587 301.507C93.3687 304.914 63.4431 309.492 40.2218 301.007C40.0735 301.371 39.451 302.188 38.1467 302.544C29.1546 301.902 10.133 299.609 5.9828 295.578C2.23749 291.939 4.24612 285.613 6.12615 282.09C6.32938 281.709 6.53111 281.361 6.7239 281.052H8.05793C9.89581 277.736 14.4412 271.544 20.0638 268.669C18.2852 265.139 17.0994 256.181 26.5855 248.592C25.9926 249.036 24.629 249.748 23.9175 249.036C22.88 248.147 21.9017 245.42 26.2891 241.625L33.1072 235.252C31.4768 236.487 28.1863 238.661 28.0677 237.475C27.5242 236.586 27.8898 232.643 33.7001 223.987C33.8977 223.444 34.2337 221.378 33.9965 217.465C34.0459 216.131 34.4708 212.811 35.7752 210.203C36.2692 208.276 37.4352 202.762 38.1467 196.122C38.5645 196.261 39.9242 196.484 42.5161 196.561C40.0566 196.386 37.2024 195.866 35.1823 194.639C34.5894 194.145 32.9886 193.068 31.3286 192.713C34.1942 190.539 40.6665 184.205 43.6309 176.26C44.0261 175.321 45.202 173.029 46.7435 171.369C50.3502 165.934 57.3561 149.225 56.5261 125.865L58.8976 97.555C59.1446 96.7151 59.9944 94.9463 61.4173 94.5906L60.6762 90.4404L63.6406 86.4384L60.2316 78.1381C56.8719 80.1638 49.1743 84.5412 45.2613 85.8456C41.3483 87.1499 38.6902 86.389 37.8503 85.8456L24.3622 75.0255C22.3365 73.1974 18.1962 68.5927 17.8405 64.7982C16.9018 60.7963 15.4097 50.4505 16.9512 41.083C15.9136 41.577 13.4532 42.5059 11.9117 42.2687C13.4433 41.2312 16.6844 38.3853 17.3958 35.3023C14.4314 36.9328 7.73185 40.1936 4.64886 40.1936C6.72395 38.5138 10.8741 34.8873 10.8741 33.8201C8.89785 33.1779 4.02633 32.7233 0.350464 36.0435C3.21606 33.2273 10.4295 26.9131 16.3583 24.1858C14.2832 24.4328 9.42156 24.3044 6.57573 21.8143C8.74963 21.7649 13.6607 21.4585 15.9136 20.6285C17.9393 19.5416 22.7614 17.3677 25.8444 17.3677C23.7199 17.2688 18.6705 17.2491 15.469 17.9605C17.4946 15.0949 26.4966 9.18588 46.2988 8.47442C45.3601 7.48629 43.5716 5.18393 43.9273 3.87959C45.3107 5.11476 48.8482 7.64439 51.9312 7.88154C52.7711 8.02976 54.6288 8.56336 55.3403 9.51197C54.7968 7.63451 53.9174 3.40528 54.7474 1.50806C55.6861 5.01594 59.3719 12.4171 66.6051 13.9586C66.5062 12.8716 66.3679 10.4606 66.6051 9.51197C67.0497 11.2412 68.2948 14.9665 69.7177 16.0337C69.7671 15.7372 70.0141 15.0258 70.607 14.5515C70.854 15.8855 71.5853 18.672 72.5339 19.1463C73.7196 19.7392 80.9825 18.4052 83.354 16.923C83.3046 17.7629 82.02 19.9171 77.2769 21.8143C78.7591 23.0494 83.1465 25.7866 88.8381 26.8538C87.7512 27.2984 84.6287 28.1581 80.8342 28.0395C81.6741 29.2747 83.354 31.8933 83.354 32.4862C82.9093 32.0909 81.9014 31.2411 81.4271 31.004C81.9212 32.6344 82.7018 36.577 81.8718 39.3043C81.2789 37.9209 79.8856 35.0059 79.0556 34.413C78.8085 37.8715 78.0477 46.5968 76.9805 53.8299C79.352 54.2252 83.5911 56.4979 81.5753 62.4267C80.7354 64.4524 77.7512 68.3852 72.5339 67.9109L67.939 73.2468L70.7552 82.5847L75.2019 85.5491L75.3501 86.7349L81.5753 89.8475C82.0694 90.0451 83.4133 91.2704 84.8362 94.5906C86.2591 97.9107 100.152 128.78 106.921 143.8L104.698 208.72L104.846 209.61C104.253 210.104 103.127 211.863 103.364 214.946L99.8065 225.766C99.263 225.667 98.2057 225.825 98.3243 227.248C98.4725 229.027 97.8796 229.175 97.1385 229.916C96.3974 230.657 98.176 231.546 98.7689 230.657C102.277 238.809 109.115 255.617 108.403 257.633C108.156 258.523 107.455 260.598 106.625 261.783L102.03 256.596C101.832 256.497 101.467 256.418 101.585 256.892C101.783 257.287 102.297 258.167 102.771 258.523C102.82 258.671 102.83 258.938 102.474 258.819C101.931 258.523 100.903 258.137 101.14 258.967C101.239 259.362 102.326 260.716 105.884 262.969C106.032 263.117 106.239 263.562 105.884 264.155C105.538 264.698 105.202 265.845 106.625 266.082C107.168 265.835 108.107 265.607 107.514 266.675C106.921 267.742 109.737 271.27 111.219 272.9L110.034 285.35L109.737 288.921C110.587 288.923 111.477 288.804 112.257 288.463Z" fill="#C9DBDD"/>
<path d="M39.1842 285.054C47.4846 290.341 70.8145 298.423 97.7313 288.463M39.1842 285.054C40.7563 281.91 44.5554 276.919 50.3008 273.898M39.1842 285.054C38.4968 285.545 38.0347 286.32 37.7464 287.277M97.7313 288.463C91.8025 280.993 82.2176 278.631 78.1662 278.384C73.8975 273.522 66.1109 271.714 62.7513 271.418C57.9349 270.972 53.7642 272.077 50.3008 273.898M97.7313 288.463C98.3242 288.908 99.8954 289.323 101.437 287.426C102.277 286.981 104.52 286.566 106.773 288.463C107.384 288.667 108.519 288.918 109.737 288.921M40.2218 301.007C63.4431 309.492 93.3687 304.914 105.587 301.506L105.883 296.022L109.441 300.024L112.553 298.542L112.257 288.463C111.477 288.804 110.587 288.923 109.737 288.921M40.2218 301.007C39.8744 300.88 39.5285 300.75 39.1842 300.617C38.0873 297.287 36.6424 290.944 37.7464 287.277M40.2218 301.007C40.0735 301.371 39.451 302.188 38.1467 302.544C29.1546 301.902 10.133 299.609 5.9828 295.578C2.23749 291.939 4.24613 285.613 6.12615 282.09M47.1882 271.418C42.6427 269.54 31.6843 266.082 24.214 267.268C22.7847 267.494 21.3941 267.989 20.0638 268.669M47.1882 271.418C47.8305 271.688 49.3522 272.563 50.3008 273.898M47.1882 271.418L45.706 268.669C44.1645 265.877 45.0637 264.2 45.706 263.71L49.8561 260.153C49.5103 259.362 48.5814 257.1 47.6328 254.372C46.6842 251.645 47.7316 249.283 48.3739 248.444L51.3383 244.59L48.0775 239.106C47.1289 237.92 47.4846 235.746 47.781 234.807C50.034 231.25 50.3008 220.973 50.1526 216.28C48.2554 215.212 46.8917 212.475 46.4471 211.24V196.566M6.12615 282.09C6.32938 281.709 6.53111 281.361 6.7239 281.052H8.05793C9.89581 277.736 14.4412 271.544 20.0638 268.669M6.12615 282.09C8.67711 284.412 18.5725 288.7 37.7464 287.277M20.0638 268.669C18.2852 265.139 17.0994 256.181 26.5855 248.592C25.9926 249.036 24.629 249.748 23.9175 249.036C22.88 248.147 21.9017 245.42 26.2891 241.625L33.1072 235.252C31.4768 236.487 28.1863 238.661 28.0677 237.475C27.5242 236.586 27.8898 232.643 33.7001 223.987C33.8977 223.444 34.2337 221.378 33.9965 217.465C34.0459 216.131 34.4708 212.811 35.7752 210.203C36.2692 208.276 37.4353 202.762 38.1467 196.122C38.7396 196.319 41.2297 196.685 46.4471 196.566M46.4471 196.566C44.0755 196.764 38.5024 196.655 35.1823 194.639C34.5894 194.145 32.9886 193.068 31.3286 192.713C34.1942 190.539 40.6665 184.205 43.6309 176.26C44.0261 175.321 45.202 173.029 46.7435 171.369C50.3502 165.934 57.3561 149.225 56.5261 125.865L58.8976 97.555C59.1446 96.7151 59.9944 94.9463 61.4173 94.5906L60.6762 90.4404L63.6406 86.4384L60.2316 78.1381C56.8719 80.1638 49.1743 84.5412 45.2613 85.8456C41.3483 87.1499 38.6902 86.389 37.8503 85.8456L24.3622 75.0255C22.3365 73.1974 18.1962 68.5927 17.8405 64.7982C16.9018 60.7963 15.4097 50.4505 16.9512 41.083C15.9136 41.577 13.4532 42.5059 11.9117 42.2687C13.4433 41.2312 16.6844 38.3853 17.3958 35.3024C14.4314 36.9328 7.73185 40.1936 4.64886 40.1936C6.72395 38.5138 10.8741 34.8873 10.8741 33.8201C8.89785 33.1779 4.02633 32.7233 0.350464 36.0435C3.21606 33.2273 10.4295 26.9131 16.3583 24.1858C14.2832 24.4328 9.42156 24.3044 6.57573 21.8143C8.74963 21.7649 13.6607 21.4585 15.9136 20.6285C17.9393 19.5416 22.7614 17.3677 25.8444 17.3677C23.7199 17.2688 18.6705 17.2491 15.469 17.9605C17.4946 15.0949 26.4966 9.18588 46.2988 8.47442C45.3601 7.48629 43.5716 5.18393 43.9273 3.87959C45.3107 5.11476 48.8482 7.64439 51.9312 7.88154C52.7711 8.02976 54.6288 8.56336 55.3403 9.51197C54.7968 7.63451 53.9174 3.40528 54.7474 1.50806C55.6861 5.01594 59.3719 12.4171 66.6051 13.9586C66.5062 12.8716 66.3679 10.4606 66.6051 9.51197C67.0497 11.2412 68.2948 14.9665 69.7177 16.0337C69.7671 15.7372 70.0141 15.0258 70.607 14.5515C70.854 15.8855 71.5853 18.672 72.5339 19.1463C73.7196 19.7392 80.9825 18.4052 83.354 16.923C83.3046 17.7629 82.02 19.9171 77.2769 21.8143C78.7591 23.0494 83.1465 25.7866 88.8381 26.8538C87.7512 27.2984 84.6287 28.1581 80.8342 28.0395C81.6741 29.2747 83.354 31.8933 83.354 32.4862C82.9093 32.0909 81.9014 31.2411 81.4271 31.0039C81.9212 32.6344 82.7018 36.577 81.8718 39.3043C81.2789 37.9209 79.8856 35.0059 79.0556 34.413C78.8086 37.8715 78.0477 46.5968 76.9805 53.8299C79.352 54.2252 83.5911 56.4979 81.5753 62.4267C80.7354 64.4524 77.7512 68.3852 72.5339 67.9109L67.939 73.2468L70.7552 82.5847L75.2019 85.5491L75.3501 86.7349L81.5753 89.8475C82.0694 90.0451 83.4133 91.2704 84.8362 94.5906C86.2591 97.9107 100.152 128.78 106.921 143.8L104.698 208.72M49.8561 272.011C49.4609 271.517 48.6111 269.669 48.3739 266.23C49.8561 263.908 53.7395 259.353 57.4154 259.708C58.0577 259.56 59.1051 258.878 58.1565 257.337C57.8106 257.189 56.9707 257.04 56.3778 257.633C56.3778 257.04 56.0518 255.973 54.7474 256.447C54.5498 256.497 53.7988 257.04 52.3759 258.819C51.9312 257.436 51.1012 253.957 51.3383 251.111L55.1921 246.368C55.8344 246.467 57.2079 246.398 57.5636 245.331C57.9193 244.264 56.8225 243.997 56.2296 243.997L50.3008 234.214C50.0538 233.325 50.0933 231.072 52.2277 229.175C51.9312 224.333 51.7237 211.181 53.2652 197.307C58.5517 198.197 70.0141 199.442 73.5714 197.307C74.4607 196.863 76.5358 196.507 77.7216 198.641C80.1425 202.05 88.9271 208.839 104.698 208.72M104.698 208.72L104.846 209.61C104.253 210.104 103.127 211.863 103.364 214.946L99.8065 225.766C99.263 225.667 98.2057 225.825 98.3243 227.248C98.4725 229.027 97.8796 229.175 97.1385 229.916C96.3974 230.657 98.176 231.546 98.7689 230.657C102.277 238.809 109.115 255.617 108.403 257.633C108.156 258.523 107.455 260.598 106.625 261.783L102.03 256.596C101.832 256.497 101.467 256.418 101.585 256.892C101.783 257.287 102.297 258.167 102.771 258.523C102.82 258.671 102.83 258.938 102.474 258.819C101.931 258.523 100.903 258.137 101.14 258.967C101.239 259.362 102.326 260.716 105.884 262.969C106.032 263.117 106.239 263.562 105.884 264.155C105.538 264.698 105.202 265.845 106.625 266.082C107.168 265.835 108.107 265.607 107.514 266.675C106.921 267.742 109.737 271.269 111.219 272.9L110.034 285.35L109.737 288.921M50.1526 207.535C49.6585 206.398 48.6704 202.614 48.6704 196.566C49.5597 196.566 51.3383 196.715 51.3383 197.307C51.3383 198.049 51.1901 206.497 50.1526 207.535Z" stroke="black"/>
<path d="M71.6445 59.0176C71.729 58.8183 71.8336 58.5943 71.9569 58.3543C72.9854 55.7344 73.7463 49.4765 74.0161 46.4188C68.6801 47.9603 60.3304 49.1362 56.8225 49.5315C55.9924 45.9742 58.0576 37.9703 59.194 34.413C55.7553 34.5315 53.3146 33.7707 52.5241 33.3754C51.5755 35.747 49.0656 39.2054 47.9292 40.6382C49.2336 37.6738 49.0656 34.7588 48.8186 33.6719C45.3798 35.4505 42.3463 38.0691 41.2593 39.156C42.6822 37.3774 43.2356 35.1541 43.3344 34.2647C41.4372 36.3991 38.4925 38.1185 37.2574 38.7114C38.9174 36.4584 39.5301 33.9189 39.6289 32.9308C35.3601 34.7094 30.9333 39.4031 29.2534 41.5276C29.4906 39.6303 30.3404 37.7726 30.7357 37.0809C28.2455 38.741 23.0776 41.0335 20.8049 41.9722C24.9551 39.9564 27.6724 35.994 28.5123 34.2647C26.1408 34.9762 23.7693 37.328 22.88 38.4149C23.4728 36.992 23.5223 35.9446 23.4728 35.5987C18.7298 41.2904 13.8879 42.4169 12.0599 42.2687C16.4472 38.5928 17.4452 36.0928 17.3958 35.3023C10.3998 39.0967 6.08163 40.1442 4.79705 40.1936C9.06581 36.7549 10.6271 34.5118 10.8741 33.8201C5.41958 32.5157 1.68442 34.66 0.498657 35.8952C5.12314 30.915 12.8998 26.0138 16.21 24.1857C11.3484 24.7786 7.76147 22.8518 6.5757 21.8142C11.6745 21.8142 14.9255 21.0237 15.9136 20.6285C20.0638 18.1383 24.0657 17.417 25.5479 17.3676C21.5163 17.0119 17.2476 17.5158 15.6172 17.8123C22.9689 10.4605 39.1348 8.52378 46.2988 8.47437C44.0458 6.10284 43.779 4.42301 43.9272 3.87953C47.366 6.84394 50.3995 7.78267 51.4865 7.88149C53.2651 8.00006 54.698 8.82022 55.1921 9.21547C54.1249 5.5396 54.451 2.74317 54.7474 1.80444C58.0676 11.0534 64.0359 13.6621 66.605 13.8103C66.3679 12.2688 66.5062 10.5 66.605 9.80835C67.7908 13.84 69.1742 15.6384 69.7177 16.0336C70.0734 14.8478 70.4588 14.6502 70.607 14.6996C71.0813 18.3755 72.2868 19.2945 72.8303 19.2945C76.6247 19.413 81.4271 17.8617 83.354 17.0712C82.4053 19.5613 78.9073 21.2707 77.2769 21.8142C81.7828 25.2529 86.763 26.6067 88.6899 26.8537C87.6227 27.6838 83.0081 28.0889 80.8342 28.1877C82.1385 29.7292 83.0575 31.6956 83.354 32.4861C82.2868 31.6561 81.6247 31.2509 81.4271 31.1521C82.6128 34.9466 82.2176 38.0691 81.8717 39.156C81.1603 37.0216 79.6978 35.2035 79.0555 34.5612C79.0555 37.0513 77.6722 48.5433 76.9805 53.9781C74.6905 54.0822 72.8422 56.6304 71.9569 58.3543C71.8553 58.6131 71.7511 58.8364 71.6445 59.0176Z" fill="black" stroke="black"/>
<path d="M106.773 288.463C110.567 289.649 114.283 288.068 115.666 287.129C116.852 286.299 116.16 285.499 115.666 285.202L115.518 274.53C115.874 274.175 116.061 273.69 116.111 273.493C116.466 270.528 114.579 270.183 113.591 270.38L110.923 267.119C112.109 264.985 113.196 261.981 113.591 260.746C112.049 258.967 111.269 256.744 111.071 255.855C110.123 252.297 107.316 244.293 106.032 240.736C103.067 235.282 102.03 231.052 101.882 229.619C103.186 226.536 103.413 223.493 103.364 222.357C106.328 215.005 107.662 208.918 107.959 206.794L104.846 206.497L104.55 208.72C89.016 208.958 80.0931 201.902 77.5734 198.345C76.1505 196.448 74.1149 196.962 73.275 197.456C68.2948 199.353 57.86 198.147 53.2652 197.307C50.4194 196.477 47.534 196.467 46.4471 196.566V211.24C47.0399 213.493 49.1644 215.637 50.1526 216.428C50.3008 230.657 48.6704 232.732 47.781 234.807C47.0696 236.467 47.6822 238.364 48.0775 239.106L51.3383 244.59C51.0913 244.886 50.1822 246.013 48.5221 248.147C46.8621 250.281 47.1388 252.89 47.4846 253.928L49.8561 260.153C49.1644 260.746 47.3363 262.317 45.5577 263.858C43.779 265.4 45.9035 269.54 47.1881 271.418C48.4924 271.892 49.8067 273.196 50.3007 273.789C63.2256 267.742 74.263 274.333 78.1662 278.384C89.1938 279.57 95.8044 285.597 97.7313 288.463C99.2728 289.412 100.943 288.167 101.585 287.425C103.719 286.358 105.933 287.673 106.773 288.463Z" fill="black" stroke="black"/>
<path d="M99.9547 286.092C103.038 285.617 107.959 285.598 110.034 285.647L111.219 272.9C107.662 268.987 107.267 267.218 107.514 266.823C107.662 266.576 107.899 266.052 107.662 265.934C107.425 265.815 106.872 265.983 106.625 266.082C105.202 265.963 105.538 264.748 105.883 264.155C106.239 263.444 106.032 263.068 105.883 262.969C101.14 260.005 100.745 258.77 101.14 258.523C101.733 258.226 102.326 258.671 102.623 258.819C102.86 258.938 102.82 258.671 102.771 258.523C102.425 258.177 101.704 257.366 101.585 256.892C101.467 256.418 101.832 256.497 102.03 256.596C102.504 257.07 105.291 260.153 106.625 261.635C107.573 260.212 108.206 258.276 108.403 257.485C109.233 256.181 102.326 239.056 98.7689 230.657C98.6503 231.131 98.1266 231.151 97.8796 231.102C96.6938 230.746 96.8914 230.163 97.1385 229.916C98.4428 228.967 98.4725 227.643 98.3242 227.1C98.2057 225.914 99.263 225.716 99.8064 225.766L103.364 214.946C103.127 211.863 104.253 210.104 104.846 209.61L104.698 208.72C89.1642 209.076 80.2413 202.149 77.7216 198.641C76.2987 196.389 74.1643 196.912 73.275 197.456C69.0062 199.353 58.1565 198.147 53.2652 197.307C51.9608 208.572 52.03 223.246 52.2276 229.175C49.9747 231.428 50.0043 233.473 50.3008 234.214L56.2296 243.997C56.8225 243.997 57.9193 244.264 57.5636 245.331C57.2078 246.398 55.8343 246.467 55.192 246.369L51.3383 251.112C51.1012 254.432 51.9312 257.633 52.3759 258.819C53.3245 257.633 54.3521 256.744 54.7474 256.448C56.0517 255.973 56.3778 257.04 56.3778 257.633C57.2078 256.803 57.9094 257.09 58.1565 257.337C59.1051 258.76 58.0576 259.511 57.4154 259.708C53.6209 259.353 49.8067 263.908 48.3739 266.23C48.3739 268.602 49.362 271.072 49.8561 272.011C64.7967 267.03 76.2394 273.493 80.0931 277.347C84.599 277.465 91.1602 281.151 93.8776 282.979C96.2491 283.572 98.9171 285.301 99.9547 286.092Z" fill="#C9DBDD" stroke="black"/>
<path d="M62.1584 109.413C62.2572 116.972 61.4173 134.699 57.2671 145.134C57.1683 146.567 56.6446 150.499 55.3403 154.768C53.7098 160.104 49.8561 169.887 48.2257 175.815C47.1387 177.545 44.787 181.774 44.0755 184.857L43.7791 190.934C45.2119 190.934 49.1743 191.497 53.5616 193.75C57.9489 196.003 68.8283 195.282 73.7196 194.639C70.1129 192.12 62.6327 186.636 61.5655 184.857C60.4983 183.078 59.441 182.436 59.0458 182.337C58.6505 182.09 58.0675 181.537 58.8976 181.3C59.7276 181.062 61.5161 183.276 62.3066 184.412C62.9489 184.363 64.7078 184.738 66.605 186.636C66.6544 186.141 65.9825 184.412 62.8995 181.448C62.8501 181.151 62.9291 180.677 63.6406 181.151C64.3521 181.626 72.1386 189.748 75.9429 193.75C76.437 189.254 78.2848 178.246 81.7235 170.183C82.0694 169.64 82.7611 168.256 82.7611 167.07C82.7611 165.885 83.1563 156.102 83.3539 151.359L74.9054 113.415L74.4607 109.413C74.6583 109.637 75.1129 110.752 75.35 113.415C76.1899 115.885 78.0476 121.507 78.7591 124.235C79.4706 126.962 84.095 143.059 86.3184 150.766L91.2096 147.654C91.012 147.999 90.4389 148.839 89.7274 149.432L96.3974 146.616C94.4705 147.505 90.5871 149.373 90.4685 149.729C90.35 150.084 94.9646 149.679 97.2867 149.432L88.6899 152.545C89.431 152.594 90.9725 152.871 91.2096 153.582C89.9251 153.829 87.1187 154.531 86.1701 155.361C85.9231 162.229 84.6879 177.742 81.7235 184.857C81.18 186.389 80.182 190.578 80.5378 195.084C84.0456 199.037 92.9883 206.201 100.696 203.236L100.992 200.42C100.053 198.543 98.0871 194.254 97.7313 192.12C98.2748 192.317 99.8657 193.276 101.882 195.529L103.808 144.244L83.6504 93.9977C82.3274 95.1202 79.7552 97.8368 78.262 101.039C77.8874 101.881 77.6343 102.589 77.4882 103.101C77.4663 103.179 77.4453 103.257 77.4251 103.336C77.4433 103.263 77.4644 103.184 77.4882 103.101C77.6848 102.399 77.9498 101.708 78.262 101.039C79.1543 99.0323 80.7363 96.2615 83.2057 93.553C83.0081 92.7625 81.1603 90.5886 75.35 88.2171C73.6702 92.6143 70.2216 102.298 69.8659 105.855C69.4706 102.496 68.4726 95.1835 67.6426 92.8119C66.1604 94.7388 63.0181 99.4226 62.3066 102.743C62.2078 100.223 61.7434 94.2645 60.6762 90.5886L63.6406 86.4385L67.6426 91.478L70.1623 87.0313C69.52 85.0551 68.1762 80.5393 67.939 78.2863L63.0477 81.5472C63.1959 82.5847 63.4924 84.9266 63.4924 85.9938L60.2315 78.2863L67.939 73.2468L70.7552 82.5847L75.2018 85.5491L75.35 86.7349L81.2789 89.6993C82.02 90.0452 83.769 91.5076 84.8362 94.5906L106.921 143.8C106.279 163.76 104.905 204.689 104.549 208.72C98.7195 209.017 85.1919 207.416 77.7216 198.641C77.3757 197.802 76.0615 196.359 73.5714 197.307C72.2868 198.197 66.4864 199.442 53.5616 197.307C52.3264 196.962 49.0261 196.329 45.7059 196.566C43.6802 196.715 38.7692 196.566 35.3305 194.788C35.1823 194.788 34.2929 193.602 31.4767 192.713C34.2929 190.39 40.6368 183.968 43.4826 176.853C43.7296 175.914 44.7277 173.503 46.7435 171.369C50.5972 164.551 57.9489 145.934 56.526 126.013L58.3047 103.336C58.2059 112.13 57.9786 130.608 57.86 134.165C59.0793 128.681 61.6461 116.053 62.1584 109.413Z" fill="black" stroke="black"/>
<path d="M20.9532 267.119C26.1706 264.748 39.629 267.416 45.706 269.046L47.0399 271.27C30.6764 265.104 22.2377 266.922 20.0639 268.602C15.3208 259.708 22.3366 251.655 26.4374 248.74C20.2714 255.262 19.8168 259.857 20.3603 261.339C23.1765 261.24 29.2832 261.22 31.1804 261.932C33.0776 262.643 38.7891 264.106 41.4076 264.748C39.7476 265.222 35.5776 264.155 33.7002 263.562C28.72 261.783 22.139 263.019 19.471 263.859C19.5896 265.637 20.5085 266.774 20.9532 267.119Z" fill="black" stroke="black"/>
<path d="M37.7021 300.914C35.6863 296.763 36.1705 290.192 36.6645 287.426H37.7021C36.7535 291.457 38.295 297.9 39.1842 300.617L40.2218 301.062C39.9846 301.892 38.6408 302.495 37.9985 302.692C24.7179 302.218 12.7022 298.937 8.35435 297.356C1.35834 294.51 3.85833 285.993 5.98282 282.09L7.16857 282.979C3.72985 291.991 7.81086 295.528 10.2812 296.171C19.1744 300.439 32.2673 301.111 37.7021 300.914Z" fill="black" stroke="black"/>
<path d="M39.1843 285.054C25.6665 286.596 12.8998 283.127 8.20616 281.2H6.87218L6.2793 282.238C16.2397 288.167 31.378 287.969 37.7021 287.129C38.0578 285.825 38.8384 285.202 39.1843 285.054Z" fill="black" stroke="black"/>
<path d="M19.4709 267.861C12.3563 271.892 8.50257 278.335 7.46503 281.052H8.05791C12.0895 273.463 17.6428 269.59 19.9156 268.602L19.4709 267.861Z" fill="black" stroke="black"/>
<path d="M12.9492 262.08C14.4907 264.57 16.3583 268.355 17.0994 269.936L19.7673 268.009C15.4986 259.115 22.4353 251.457 26.4373 248.74C25.0143 249.689 24.0657 249.234 23.7693 248.888C21.6349 246.517 24.461 243.157 26.1408 241.774L32.959 235.4C31.9214 236.092 29.6685 237.535 28.957 237.772C28.2456 238.009 27.9689 237.278 27.9195 236.882C27.9195 232.969 31.7732 226.655 33.7001 223.987C34.293 222.564 34.1447 218.849 33.9965 217.169C34.1151 213.968 35.3305 211.092 35.9234 210.054C36.7534 206.853 37.7514 199.432 38.1467 196.122L35.9234 195.232C35.9234 197.604 34.9352 203.928 34.4412 206.794C31.7139 214.145 30.7357 221.122 30.5874 223.691L25.2515 231.991L25.1033 240.143L18.7298 245.035C17.6626 246.813 19.6685 250.519 20.8049 252.149C13.8089 259.145 12.6528 261.685 12.9492 262.08Z" fill="black" stroke="black"/>
<path d="M38.7396 287.129C39.8068 286.655 40.5677 286.24 40.8147 286.092L39.036 285.202C35.2416 285.914 37.2574 296.171 38.7396 301.21C41.8226 303.226 47.534 304.619 50.0044 305.064C72.5339 309.333 97.1385 305.163 106.625 302.544V298.69L109.293 301.358L113.739 299.432V288.167L110.775 288.908L111.071 296.171L108.255 297.505L105.291 294.837C105.142 296.171 104.816 299.017 104.698 299.728C104.579 300.439 103.463 300.914 102.919 301.062C102.524 301.21 99.3915 301.892 90.0239 303.434C78.3145 305.36 64.2335 304.026 59.0458 303.878C54.8956 303.76 50.7949 303.236 49.2633 302.989C46.7732 302.633 42.0005 300.469 39.9254 299.432C38.1467 296.467 38.3938 289.995 38.7396 287.129Z" fill="black" stroke="black"/>
<path d="M96.9903 287.574C72.8007 295.993 48.4727 289.402 39.3325 285.054L39.9253 286.536C63.5221 297.564 88.1958 292.416 97.5831 288.463L96.9903 287.574Z" fill="black" stroke="black"/>
<path d="M71.6496 59.1527C72.4453 57.0743 74.8531 53.1799 78.1662 54.1264C79.7966 54.7193 82.85 56.913 82.0199 60.9446C81.5259 63.4149 78.937 68.2667 72.5338 67.911C71.6445 69.0473 69.3026 71.8833 67.0497 74.1362C63.443 76.5078 53.9766 82.1994 44.9648 85.9939C43.3344 86.5373 39.451 87.1203 36.9609 85.1045L24.8068 75.322C23.1764 74.0374 19.5598 70.4011 18.1369 66.1323C17.0499 62.2786 15.291 51.9031 16.9511 41.2313C18.2851 40.4902 21.457 38.2965 23.4728 35.4507C23.4728 36.0435 23.3246 37.4961 22.7317 38.5633C24.0163 37.1799 26.9709 34.3835 28.5123 34.2649C27.49 36.1636 24.5103 40.3363 20.6794 42.0462C23.3691 40.8718 28.9109 38.2934 30.8839 36.7846C30.3404 37.921 29.2535 40.4605 29.2535 41.5277C31.1803 39.1562 35.953 34.1167 39.6289 32.9309C39.5301 33.919 38.8878 36.4882 37.1091 38.8597C38.5913 38.0692 41.9115 36.0435 43.3344 34.2649C43.1862 35.3024 42.534 37.7629 41.1111 39.3044C42.4945 37.9704 45.9727 34.9764 48.8186 33.672C49.115 34.7096 49.3225 37.6147 47.781 40.9348C48.8186 39.6008 51.2197 36.2214 52.5241 33.3756C53.5122 33.7708 56.2296 34.5317 59.194 34.4131C58.0576 37.674 55.9924 45.2629 56.8225 49.5316C60.528 49.087 69.1544 47.8419 74.0161 46.419C73.868 48.9853 73.1875 55.1209 71.6496 59.1527Z" fill="#FFEAC8" stroke="black"/>
<path d="M73.4231 62.575C73.7689 61.488 75.4093 58.7213 79.2037 56.3497C78.9073 55.5592 77.5733 54.245 74.6089 55.3122C74.0654 55.5592 72.7413 56.6462 71.7927 59.0177C72.3856 57.3873 74.2531 54.0968 76.9804 53.9782C78.0673 53.9782 80.5377 54.6897 81.7234 57.5355C82.9092 60.3813 81.427 63.1679 80.5377 64.2054C80.0436 64.9959 78.3737 66.7845 75.6464 67.6145C75.1523 67.7627 73.8381 68.0295 72.5338 67.9109C71.2492 69.5414 68.354 73.069 67.0496 74.1362C63.4923 76.4583 54.2434 82.0215 45.7058 85.6974C44.1742 86.2903 40.4885 87.15 37.9984 85.8456L30.8839 80.5097L27.9195 78.1382L24.3621 75.0255C22.8305 73.6915 19.4412 70.075 18.1368 66.2805C17.0993 63.1679 15.4392 53.7707 17.0993 41.083C16.7197 47.4565 16.5441 61.4189 18.878 66.2805C19.4214 67.7627 21.279 71.4089 24.3621 74.1362L31.1803 79.9168L38.2949 84.8081C39.3818 85.2527 42.3856 85.7863 45.7058 84.3634C50.3007 82.5848 61.0022 77.6046 67.0496 71.9129C67.7413 71.1718 69.3026 69.4821 70.0141 68.652C70.2117 68.405 70.3402 67.3773 69.273 65.243C69.8659 66.3299 72.0595 68.2667 76.0911 67.3181C77.4745 66.824 80.4785 64.9465 81.4271 61.3892C81.4271 60.4505 80.7452 58.7509 78.0179 59.4624C77.3841 59.5765 76.178 59.8981 75.1939 60.4332C74.7973 60.6489 74.4368 60.8993 74.1643 61.1847C73.9676 61.4816 73.7059 61.9387 73.4231 62.575Z" fill="black"/>
<path d="M74.9053 65.243C76.1405 65.0947 78.4922 64.2647 78.0179 62.1303C77.6721 61.1422 76.4764 59.492 74.4606 60.7963C74.4008 60.8562 74.2975 60.9837 74.1643 61.1847M74.1643 61.1847C73.9676 61.4816 73.7059 61.9387 73.4231 62.575C73.7689 61.488 75.4093 58.7213 79.2037 56.3497C78.9073 55.5592 77.5733 54.245 74.6089 55.3122C74.0654 55.5592 72.7413 56.6462 71.7927 59.0177C72.3856 57.3873 74.2531 54.0968 76.9804 53.9782C78.0673 53.9782 80.5377 54.6897 81.7234 57.5355C82.9092 60.3813 81.427 63.1679 80.5377 64.2054C80.0436 64.9959 78.3737 66.7845 75.6464 67.6145C75.1523 67.7627 73.8381 68.0295 72.5338 67.9109C71.2492 69.5414 68.354 73.069 67.0496 74.1362C63.4923 76.4583 54.2434 82.0215 45.7058 85.6974C44.1742 86.2903 40.4885 87.15 37.9984 85.8456L30.8839 80.5097L27.9195 78.1382L24.3621 75.0255C22.8305 73.6915 19.4412 70.075 18.1368 66.2805C17.0993 63.1679 15.4392 53.7707 17.0993 41.083C16.7197 47.4565 16.5441 61.4189 18.878 66.2805C19.4214 67.7627 21.279 71.4089 24.3621 74.1362L31.1803 79.9168L38.2949 84.8081C39.3818 85.2527 42.3856 85.7863 45.7058 84.3634C50.3007 82.5848 61.0022 77.6046 67.0496 71.9129C67.7413 71.1718 69.3026 69.4821 70.0141 68.652C70.2117 68.405 70.3402 67.3773 69.273 65.243C69.8659 66.3299 72.0595 68.2667 76.0911 67.3181C77.4745 66.824 80.4785 64.9465 81.4271 61.3892C81.4271 60.4505 80.7452 58.7509 78.0179 59.4624C77.1286 59.6225 75.1129 60.1911 74.1643 61.1847Z" stroke="black"/>
<path d="M75.6465 45.0849C73.7492 46.0335 62.7019 47.9505 57.4153 48.7904C56.8225 44.2845 59.1446 36.7351 60.3797 33.5237C55.8738 33.4051 52.8699 32.4861 51.9312 32.0415C51.694 32.7529 50.8442 33.9189 50.449 34.413C50.8047 33.2272 50.0043 31.9427 49.5597 31.4486C47.4253 33.583 45.2118 34.9071 44.3719 35.3023C45.202 33.6423 44.9154 32.3379 44.6684 31.8933C43.7198 33.3162 41.1111 34.9565 39.9253 35.5988C40.9925 34.0573 40.864 32.4861 40.6664 31.8933C37.9392 32.3676 33.9965 35.2529 32.3661 36.6363C32.4846 35.2134 33.4036 32.9802 33.8483 32.0415C32.0696 32.8715 31.3285 35.0553 31.1803 36.0434C30.4688 36.7549 27.8206 37.9209 26.5855 38.415C27.3266 37.6244 28.9273 35.7173 29.4017 34.413C29.876 33.1087 29.204 32.5849 28.8088 32.4861C27.9787 33.3162 25.6961 34.6106 24.6586 35.1541C25.1329 34.0869 24.461 33.4249 24.0657 33.2272C20.0341 38.0889 16.4571 39.996 15.1725 40.3418C15.716 39.6501 17.0401 37.8221 17.9887 36.0434C18.9373 34.2648 18.2851 33.1284 17.8404 32.7826C14.046 35.3913 11.6152 36.2411 10.8741 36.3399C12.1784 35.1541 13.0974 32.3873 13.3938 31.1521C12.4452 32.2193 8.45314 32.0909 6.57568 31.8933C7.28714 31.0632 13.295 26.8043 16.21 24.7787C16.8029 24.4229 16.9511 23.9387 16.9511 23.7411C13.8681 23.3854 12.7021 22.5059 12.5045 22.1107C17.2476 21.8735 20.1132 20.6285 20.9531 20.0356C18.8187 20.7471 17.4946 20.7273 17.0993 20.6285C19.708 18.9684 23.8187 18.0593 25.5479 17.8123C26.1408 17.5751 26.1902 17.3182 26.1408 17.2194C23.4135 16.7451 22.4353 16.2313 22.2871 16.0337C26.2001 12.2392 38.3443 10.8953 43.9273 10.6977C43.0972 10.4606 42.7909 10.006 42.7415 9.80839C44.7573 9.2155 49.4114 9.66017 51.4865 9.95661V8.77084C53.858 8.53369 56.6248 10.8459 57.7118 12.0317C57.9489 11.676 58.107 10.8953 58.1564 10.5495C58.8679 11.7353 60.2315 12.3281 60.8244 12.4764C62.7216 13.0692 64.3817 14.6009 64.9746 15.2925C66.0418 16.834 68.3837 17.1206 69.4212 17.0712C69.8165 17.9111 70.9627 19.7095 72.3856 20.1838C73.8085 20.6581 77.6227 20.085 79.352 19.7392C77.5733 20.9249 75.6465 21.7154 74.9054 21.9625C75.6168 22.081 76.4864 22.6048 76.8322 22.8518C78.4923 24.2747 82.9587 26.2115 84.9844 27.002C83.5614 27.2391 80.3401 27.3972 78.9073 27.4466C81.516 30.5296 81.6741 35.0553 81.4271 36.9328C80.7156 34.917 79.0555 33.2272 78.3144 32.6344C77.1287 35.8359 76.0417 42.2687 75.6465 45.0849Z" fill="#C5915C" stroke="black"/>
<path d="M34.8859 79.1755C35.5513 79.2379 36.7173 79.5629 38.0834 79.7857C40.8093 80.0771 42.9898 79.723 43.9463 79.2452C43.9896 79.2226 44.0327 79.1994 44.0755 79.1755C44.0353 79.199 43.9922 79.2222 43.9463 79.2452C42.1172 80.2002 39.9196 80.0852 38.0834 79.7857C37.0802 79.6784 36.003 79.4837 34.8859 79.1755Z" fill="#D9D9D9" stroke="black" stroke-linejoin="round"/>
<path d="M76.6841 143.355C75.1524 141.329 71.9706 136.389 71.4963 132.831" stroke="black" stroke-linecap="round"/>
<path d="M22.6069 64.6371C20.7517 64.694 20.0579 58.3049 20.6578 55.3043L25.2285 56.0762C25.5597 58.8127 24.4621 64.5801 22.6069 64.6371Z" fill="black" stroke="black" stroke-linecap="round"/>
<path d="M43.3454 66.1128C46.9074 65.8696 47.106 58.5735 46.1445 55.4786L39.1557 56.543C39.0869 59.4587 39.7833 66.3561 43.3454 66.1128Z" fill="black" stroke="black" stroke-linecap="round"/>
<path d="M37.8884 53.6601C42.8578 52.6566 54.1181 51.1298 59.4045 53.0509C56.7679 51.8434 48.7735 50.2748 37.8884 53.6601Z" stroke="black" stroke-linecap="round" stroke-linejoin="round"/>
<path d="M28.057 53.5573C25.4059 52.2609 19.3402 50.0598 16.2865 51.6263C17.829 50.5992 22.3427 49.5475 28.057 53.5573Z" stroke="black" stroke-linecap="round" stroke-linejoin="round"/>
<path d="M63.6406 86.4385L67.6426 91.3298L70.1623 87.0314C68.2651 80.7469 67.8896 78.484 67.939 78.1382L63.0477 81.2508C63.4035 84.2152 63.5912 85.9445 63.6406 86.4385Z" fill="#FFEAC8" stroke="black" stroke-linecap="round" stroke-linejoin="round"/>
<path d="M54.7474 194.195C61.862 195.973 70.0635 195.232 73.275 194.639C70.5477 192.861 65.2217 188.365 62.8995 186.339C62.3067 185.746 61.5656 184.709 61.2691 184.264C60.6762 182.96 59.4411 182.238 58.8976 182.041C58.5419 181.685 58.7494 181.497 58.8976 181.448C59.609 181.211 61.4667 183.325 62.3067 184.412C64.0853 184.531 65.9134 185.944 66.6051 186.636C66.1307 184.738 63.9371 182.387 62.8995 181.448C62.781 180.618 63.6406 181.102 64.0853 181.448C65.0339 182.396 72.3857 189.946 75.943 193.602C76.6544 184.827 79.9943 174.333 81.5753 170.183C82.1682 169.234 82.5141 168.009 82.6129 167.515L83.2058 151.359L74.7572 113.415C74.6386 111.043 74.4113 109.462 74.3125 108.968C75.024 110.509 75.3995 112.772 75.4983 113.711C77.0398 118.217 78.018 121.517 78.3145 122.604L86.3184 150.914L91.2097 147.653L90.1721 149.136C93.848 147.594 95.8539 146.814 96.3974 146.616C94.6187 147.446 91.7037 149.037 90.4686 149.729C92.1286 149.966 95.7057 149.63 97.2867 149.432L88.9864 152.545C90.6464 152.782 91.0614 153.335 91.0614 153.582C88.097 154.294 86.6642 155.163 86.3184 155.509C86.0812 162.505 85.3303 169.096 84.9844 171.517C84.688 173.938 83.6801 179.817 82.02 183.968C80.3599 188.118 80.3402 193.207 80.5378 195.232C81.2295 196.171 83.9172 198.819 89.1346 201.902C94.3519 204.985 99.1148 204.076 100.844 203.236L101.14 200.568C99.0061 196.892 98.0772 193.503 97.8796 192.268C99.1839 192.861 101.19 194.788 102.03 195.677L103.957 144.244L83.6504 93.9976C80.2117 96.6063 78.0674 101.31 77.4252 103.336C78.3738 99.4225 81.6741 95.1834 83.2058 93.553C82.6129 91.4186 77.8204 89.1064 75.4983 88.217C71.8224 96.7545 70.2118 103.533 69.8659 105.855C69.7473 102.061 68.3343 95.6775 67.6426 92.9601C64.6782 96.1617 62.8501 100.816 62.3067 102.743C62.3067 99.6597 61.7138 96.0233 61.4173 94.5905C59.8758 94.8277 59.0952 96.7644 58.8976 97.7032L58.3047 104.818L58.0083 133.128C59.4312 128.859 61.3679 115.737 62.1584 109.709C62.1584 130.816 58.8976 142.12 57.2672 145.134C56.8225 151.063 55.1921 156.547 53.7099 160.104C52.5241 162.95 49.5597 171.764 48.2257 175.815C45.0241 180.914 44.2237 184.066 44.2237 185.005L43.9273 190.786C48.4332 191.26 53.0182 193.256 54.7474 194.195Z" fill="#636363" stroke="black" stroke-linecap="round" stroke-linejoin="round"/>
<path d="M38.7396 287.129C37.791 294.007 39.1349 298.196 39.9254 299.432C40.4688 300.321 43.5716 302.396 51.6348 303.582C59.698 304.768 75.0536 304.669 81.7236 304.471C92.0397 303.522 100.152 301.803 102.919 301.062C104.342 300.706 104.698 300.024 104.698 299.728L105.291 294.837L108.255 297.505L111.071 296.171L110.923 288.76C108.907 288.997 107.415 288.661 106.921 288.463C104.55 286.566 102.376 286.981 101.585 287.426C101.348 288.019 100.399 288.562 99.9547 288.76C98.7689 289.353 97.8796 288.71 97.5832 288.315C73.8679 297.92 49.2632 291.131 39.9254 286.536L38.7396 287.129Z" fill="#683519" stroke="black" stroke-linecap="round" stroke-linejoin="round"/>
<path d="M10.1331 296.17C19.7377 300.083 32.4155 300.963 37.5539 300.913C35.6566 296.763 36.1705 290.192 36.6645 287.425C21.3682 288.967 10.6271 285.103 7.16864 282.979C3.8485 291.753 7.76153 295.429 10.1331 296.17Z" fill="#683519" stroke="black" stroke-linecap="round" stroke-linejoin="round"/>
<path d="M24.6586 267.119C16.0025 268.779 10.0342 277.149 8.05792 281.2C17.0697 285.469 32.3167 285.598 38.8878 285.054C42.0894 278.651 47.7316 274.876 50.1526 273.789C49.5597 272.959 47.8304 271.862 47.0399 271.418C38.2653 266.793 28.463 266.625 24.6586 267.119Z" fill="white" stroke="black" stroke-linecap="round" stroke-linejoin="round"/>
<path d="M20.212 273.937C23.4729 273.542 31.3582 273.345 36.8127 275.716M20.212 273.937C22.7318 272.752 29.7574 270.647 37.7021 271.714C34.8859 271.22 27.4452 270.973 20.212 273.937ZM36.8127 275.716C34.8859 274.234 29.8464 271.032 25.1033 270.084C27.0796 270.479 32.1883 272.159 36.8127 275.716Z" stroke="black"/>
<path d="M78.1662 278.384C88.0081 279.096 94.8164 284.807 96.9903 287.574C73.1564 295.874 48.6209 289.352 39.3325 285.054C52.3759 264.185 70.6564 271.912 78.1662 278.384Z" fill="white" stroke="black" stroke-linecap="round" stroke-linejoin="round"/>
<path d="M55.0747 275.282C58.6853 276.26 67.2848 279.117 72.7981 282.725C68.1666 281.398 57.7148 278.772 52.9597 278.883M52.9597 278.883C56.9604 278.051 66.7418 276.981 73.8617 279.367C70.8483 278.321 62.4491 276.76 52.9597 278.883Z" stroke="black"/>
<path d="M37.8502 56.6461C41.9117 55.3892 48.6808 53.7804 55.0438 55.8919C50.7116 54.9608 48.4101 54.082 37.8502 56.6461Z" stroke="black" stroke-linecap="round" stroke-linejoin="round"/>
<path d="M27.4749 56.3495C24.8425 55.4582 20.6306 53.8146 16.5065 55.312C19.3144 54.6517 20.6306 54.5313 27.4749 56.3495Z" stroke="black" stroke-linecap="round" stroke-linejoin="round"/>
</svg>
