<svg width="638" height="586" viewBox="0 0 638 586" fill="none" xmlns="http://www.w3.org/2000/svg">
<circle opacity="0.3" cx="439" cy="300" r="199" fill="#D5B9FF"/>
<path d="M402.072 518.026L78.157 444.971L70.6756 435.536L224.173 321.221C225.481 320.391 228.915 319.113 233.968 319.066C232.821 308.94 237.237 303.211 239.588 301.613L208.038 68.5528L507.33 32.1592C508.154 32.059 508.94 32.0095 509.689 32.0059C524.931 31.4782 529.264 40.7341 529.491 45.6618L547.003 324.243C551.623 338.362 549.388 347.863 547.693 350.848C549.341 354.203 548.255 358.269 546.926 360.747L417.601 512.447C412.458 518.551 405.105 518.71 402.072 518.026Z" fill="#D9D9D9"/>
<path d="M538.713 345.527L414.992 500.588M538.713 345.527C540.031 345.732 541.186 346.022 542.196 346.382M538.713 345.527L496.829 341.881M414.992 500.588C411.864 503.979 402.541 510.085 390.269 507.379M414.992 500.588C411.827 503.987 402.452 510.104 390.269 507.379M390.269 507.379C377.998 504.674 172.094 458.357 70.6756 435.536M70.6756 435.536L78.157 444.971L402.072 518.026C405.105 518.71 412.458 518.551 417.601 512.447L546.926 360.747C548.255 358.269 549.341 354.203 547.693 350.848M70.6756 435.536L224.173 321.221C225.481 320.391 228.915 319.113 233.968 319.066M547.693 350.848C549.388 347.863 551.623 338.362 547.003 324.243M547.693 350.848C546.799 349.028 545.099 347.417 542.196 346.382M547.003 324.243L529.491 45.6618C529.253 40.4888 524.489 30.546 507.33 32.1592M547.003 324.243C540.762 329.292 541.198 341.106 542.196 346.382M547.003 324.243L500.983 320.856M547.003 324.243L523.819 46.9097C523.675 41.342 520.176 30.5972 507.33 32.1592M507.33 32.1592L208.038 68.5528L239.588 301.613M239.588 301.613C237.237 303.211 232.821 308.94 233.968 319.066M239.588 301.613L267.885 303.696M233.968 319.066C235.631 319.05 237.47 319.167 239.465 319.478L263.989 321.613M496.829 341.881C495.456 336.47 494.364 324.69 500.983 320.856M496.829 341.881L466.794 339.267M500.983 320.856L468.432 318.459M466.794 339.267C465.563 334.491 464.167 323.643 468.432 318.459M466.794 339.267L285.482 323.484M468.432 318.459L288.37 305.204M285.482 323.484C284.562 319.246 283.85 309.658 288.37 305.204M285.482 323.484L263.989 321.613M288.37 305.204L267.885 303.696M263.989 321.613C262.932 317.217 262.231 307.479 267.885 303.696M532.53 317.428L513.74 61.2897L217.809 92.0787L244.321 297.328L532.53 317.428Z" stroke="black"/>
<path d="M310.047 423.222C317.191 424.244 314.423 430.007 312.146 432.76L277.269 462.186L272.71 466.032C265.429 472.174 254.078 470.582 249.313 469.018L221.749 462.38L195.944 456.166C191.481 454.553 194.022 448.661 195.851 445.916L198.181 444.221L236.855 416.083C240.983 413.229 247.969 413.367 250.945 413.793L310.047 423.222Z" fill="#9F9F9F"/>
<path d="M277.269 462.185L272.71 466.032C265.429 472.174 254.078 470.582 249.313 469.018L221.749 462.38M277.269 462.185L312.146 432.76C314.423 430.007 317.191 424.244 310.047 423.222L250.945 413.793C247.969 413.367 240.983 413.229 236.855 416.083L198.181 444.221M277.269 462.185L234.067 452.372M198.181 444.221L195.851 445.916C194.022 448.661 191.481 454.553 195.944 456.166L221.749 462.38M198.181 444.221L234.067 452.372M221.749 462.38L234.067 452.372" stroke="black"/>
<path d="M163.157 384.426C159.283 384.017 153.302 381.892 160.368 376.661L169.87 369.485L179.372 362.309L189.801 354.432L200.926 346.031L208.342 340.43C210.483 338.697 217.142 335.466 226.645 336.402L231.351 336.906L246.851 338.567L262.075 340.197L274.928 341.574L287.781 342.951L302.211 344.497L316.327 346.009L331.274 347.61L347.328 349.329L366.15 351.345L381.789 353.021L397.428 354.696L431.474 358.343L452.234 360.566L469.395 362.404L488.494 364.45L496.798 365.34C500.079 366.33 505.659 369.498 501.733 374.254L496.384 380.655L460.229 423.927C457.977 426.382 450.389 430.795 438.059 428.805L430.493 427.584L414.8 425.05L374.168 418.491L362.398 416.591L346.661 414.05L331.913 411.669L310.836 408.267L294.583 405.643L278.61 403.064L251.208 398.64L240.78 396.957L222.625 394.026L208.274 391.709L196.224 389.764L183.333 387.683L169.602 385.466L163.157 384.426Z" fill="#6E6E6E"/>
<path d="M430.493 427.584L438.059 428.805C450.389 430.795 457.977 426.382 460.229 423.927L496.384 380.655M430.493 427.584L414.8 425.05M430.493 427.584L443.576 413.343M488.494 364.45L496.798 365.34C500.079 366.33 505.659 369.498 501.733 374.254L496.384 380.655M488.494 364.45L469.395 362.404M488.494 364.45L465.137 389.874M414.8 425.05L469.395 362.404M414.8 425.05L374.168 418.491M469.395 362.404L452.234 360.566M374.168 418.491L431.474 358.343M374.168 418.491L362.398 416.591M431.474 358.343L397.428 354.696M431.474 358.343L452.234 360.566M346.661 414.05L397.428 354.696M346.661 414.05L362.398 416.591M346.661 414.05L331.913 411.669M397.428 354.696L381.789 353.021M366.15 351.345L347.328 349.329M366.15 351.345L381.789 353.021M366.15 351.345L325.882 394.484M347.328 349.329L331.274 347.61M347.328 349.329L308.603 391.715M331.274 347.61L316.327 346.009M331.274 347.61L291.926 389.043M208.274 391.709L262.075 340.197M208.274 391.709L196.224 389.764M208.274 391.709L222.625 394.026M262.075 340.197L246.851 338.567M262.075 340.197L274.928 341.574M196.224 389.764L246.851 338.567M196.224 389.764L183.333 387.683M246.851 338.567L231.351 336.906M183.333 387.683L231.351 336.906M183.333 387.683L169.602 385.466M231.351 336.906L226.645 336.402C217.142 335.466 210.483 338.697 208.342 340.43L200.926 346.031M496.384 380.655L370.433 365.895M200.926 346.031L189.801 354.432M200.926 346.031L209.803 347.071M465.137 389.874L453.623 402.407M465.137 389.874L393.065 380.596M189.801 354.432L179.372 362.309M189.801 354.432L393.065 380.596M453.623 402.407L179.372 362.309M453.623 402.407L443.576 413.343M179.372 362.309L169.87 369.485M443.576 413.343L406.596 407.417M169.87 369.485L160.368 376.661C153.302 381.892 159.283 384.017 163.157 384.426L169.602 385.466M169.87 369.485L237.106 380.259M406.596 407.417L452.234 360.566M406.596 407.417L343.161 397.253M362.398 416.591L393.065 380.596M343.161 397.253L370.433 365.895M343.161 397.253L331.913 411.669M343.161 397.253L325.882 394.484M370.433 365.895L209.803 347.071M370.433 365.895L381.789 353.021M279.408 387.037L316.327 346.009M279.408 387.037L264.268 384.611M279.408 387.037L291.926 389.043M316.327 346.009L302.211 344.497M264.268 384.611L302.211 344.497M264.268 384.611L253.074 382.817M264.268 384.611L251.208 398.64M302.211 344.497L287.781 342.951M253.074 382.817L287.781 342.951M253.074 382.817L237.106 380.259M253.074 382.817L240.78 396.957M287.781 342.951L274.928 341.574M237.106 380.259L274.928 341.574M237.106 380.259L222.625 394.026M169.602 385.466L209.803 347.071M291.926 389.043L308.603 391.715M222.625 394.026L240.78 396.957M240.78 396.957L251.208 398.64M251.208 398.64L278.61 403.064L294.583 405.643L310.836 408.267L331.913 411.669M308.603 391.715L325.882 394.484" stroke="black"/>
<path d="M218.067 92.022L513.74 61.2897L532.53 317.428L244.321 297.328L218.067 92.022Z" fill="black" stroke="black"/>
<path d="M285.466 323.41L263.997 321.648C261.592 310.717 265.596 305.169 267.899 303.762L288.482 305.179C283.8 309.452 284.521 319.114 285.466 323.41Z" fill="#373737" stroke="black"/>
<path d="M501.115 320.826C494.396 324.683 495.442 336.399 496.805 341.775L466.778 339.193C463.849 326.864 466.674 320.296 468.453 318.554L501.115 320.826Z" fill="#373737" stroke="black"/>
<path d="M546.926 360.747C552.148 350.084 543.626 346.157 538.713 345.527C498.572 396.071 417.591 497.908 414.791 500.902C411.99 503.897 408.1 505.708 406.505 506.239L409.058 517.84C413.549 516.635 416.491 513.952 417.4 512.761L546.926 360.747Z" fill="#BFBFBF" stroke="black"/>
<path d="M401.499 517.881C403.789 518.459 407.492 518.094 409.058 517.84L406.505 506.239C400.545 508.632 393.58 508.092 390.842 507.524L70.6756 435.536L78.157 444.971L401.499 517.881Z" fill="url(#paint0_linear_625_259)" stroke="black"/>
<mask id="path-13-inside-1_625_259" fill="white">
<ellipse cx="353.831" cy="65.3932" rx="3.43146" ry="5.01521" transform="rotate(-12.4091 353.831 65.3932)"/>
</mask>
<ellipse cx="353.831" cy="65.3932" rx="3.43146" ry="5.01521" transform="rotate(-12.4091 353.831 65.3932)" fill="white"/>
<path d="M357.182 64.6558L352.299 65.7303C352.408 66.2273 352.313 66.4943 352.325 66.4645C352.336 66.4381 352.413 66.2571 352.646 66.0307C352.896 65.7881 353.299 65.5258 353.834 65.4081L354.908 70.2913L355.983 75.1744C358.99 74.5128 360.775 72.2484 361.599 70.2059C362.434 68.1366 362.551 65.7895 362.065 63.5814L357.182 64.6558ZM354.908 70.2913L353.834 65.4081C354.369 65.2903 354.844 65.3596 355.173 65.4748C355.48 65.5823 355.626 65.7144 355.646 65.7338C355.67 65.7558 355.472 65.5532 355.362 65.0561L350.479 66.1306L345.596 67.205C346.082 69.4131 347.173 71.4945 348.799 73.0223C350.405 74.5302 352.976 75.8361 355.983 75.1744L354.908 70.2913ZM350.479 66.1306L355.362 65.0561C355.253 64.5591 355.348 64.2922 355.336 64.3219C355.325 64.3483 355.248 64.5293 355.015 64.7558C354.765 64.9983 354.363 65.2606 353.827 65.3784L352.753 60.4952L351.678 55.612C348.671 56.2736 346.886 58.5381 346.062 60.5805C345.227 62.6498 345.11 64.9969 345.596 67.205L350.479 66.1306ZM352.753 60.4952L353.827 65.3784C353.292 65.4961 352.817 65.4269 352.488 65.3116C352.181 65.2041 352.036 65.072 352.015 65.0526C351.991 65.0306 352.189 65.2332 352.299 65.7303L357.182 64.6558L362.065 63.5814C361.579 61.3733 360.488 59.292 358.862 57.7641C357.256 56.2562 354.686 54.9503 351.678 55.612L352.753 60.4952Z" fill="black" mask="url(#path-13-inside-1_625_259)"/>
<defs>
<linearGradient id="paint0_linear_625_259" x1="223.417" y1="401.928" x2="256.316" y2="551.448" gradientUnits="userSpaceOnUse">
<stop offset="0.211538" stop-color="#D9D9D9"/>
<stop offset="1" stop-color="#BFBFBF"/>
</linearGradient>
</defs>
</svg>
