<svg width="404" height="238" viewBox="0 0 404 238" fill="none" xmlns="http://www.w3.org/2000/svg">
<path d="M173.118 9.1825e-05C180.518 7.94685 187.899 17.7889 193.936 28.8283C244.981 86.2103 319.643 90.8567 371.001 82.0735C381.024 78.915 391.84 76.1674 403.504 73.9027C394.474 77.041 383.419 79.9498 371.001 82.0735C284.428 109.355 256.989 167.297 252.941 209.568C254.996 217.304 255.351 226.415 253.645 237.089C252.36 229.304 251.951 219.904 252.941 209.568C238.078 153.626 134.27 169.637 77.5674 187.184C15.992 204.128 -67.3578 226.858 91.8456 182.221C221.028 146.002 219.916 76.3309 193.936 28.8283C186.438 20.3985 179.449 10.8307 173.118 9.1825e-05Z" fill="url(#paint0_linear_491_1004)"/>
<defs>
<linearGradient id="paint0_linear_491_1004" x1="258.752" y1="133.19" x2="193.486" y2="-3.44945" gradientUnits="userSpaceOnUse">
<stop stop-color="#EBEAEA"/>
<stop offset="0.466346" stop-color="#A6A6A6"/>
<stop offset="0.971154" stop-color="#EBEAEA"/>
</linearGradient>
</defs>
</svg>
